<svg width="60" height="60" viewBox="0 0 60 60" fill="none" xmlns="http://www.w3.org/2000/svg">
<path d="M50 45.0001C50 50.5251 41.045 55.0001 30 55.0001C18.955 55.0001 10 50.5251 10 45.0001V34.9351C11.255 36.4776 13.0375 37.7576 15.02 38.7476C18.95 40.7126 24.25 41.8751 30 41.8751C35.75 41.8751 41.05 40.7126 44.98 38.7501C46.9625 37.7576 48.745 36.4751 50 34.9351V45.0001Z" fill="#1A1A1A"/>
<path d="M30 26.8751C35.75 26.8751 41.05 25.7126 44.98 23.7501C46.9625 22.7576 48.745 21.4751 50 19.9351V30.0001C50 31.2501 45.535 33.9776 43.3025 35.3951C39.995 37.0476 35.295 38.1251 30 38.1251C24.705 38.1251 20.005 37.0501 16.6975 35.3951C13.75 33.9201 10 31.2501 10 30.0001V19.9351C11.255 21.4776 13.0375 22.7576 15.02 23.7476C18.95 25.7126 24.25 26.8751 30 26.8751Z" fill="#1A1A1A"/>
<path d="M43.3025 20.395C39.995 22.0475 35.295 23.125 30 23.125C24.705 23.125 20.005 22.05 16.6975 20.395C15.41 19.89 12.515 18.2875 10.505 15.6975C10.3339 15.4807 10.2097 15.2308 10.14 14.9636C10.0703 14.6964 10.0566 14.4177 10.1 14.145C10.1575 13.775 10.2375 13.3925 10.34 13.155C12.07 8.515 20.215 5 30 5C39.785 5 47.93 8.515 49.66 13.155C49.7625 13.3925 49.8425 13.775 49.9 14.145C49.9433 14.4177 49.9297 14.6964 49.86 14.9636C49.7903 15.2308 49.666 15.4807 49.495 15.6975C47.485 18.2875 44.59 19.89 43.3025 20.395Z" fill="#1A1A1A"/>
</svg>
