<svg width="60" height="60" viewBox="0 0 60 60" fill="none" xmlns="http://www.w3.org/2000/svg">
<g clip-path="url(#clip0_139_3634)">
<path d="M60 27.5525C60 30.085 53.845 32.135 46.25 32.135C38.655 32.135 32.5 30.085 32.5 27.5525V22.97C32.5 25.5 38.655 27.5525 46.25 27.5525C53.845 27.5525 60 25.5025 60 22.97" fill="#B02739"/>
<path d="M46.25 15.3425C38.6625 15.3425 32.5 13.28 32.5 10.76V19.86C32.5 22.3825 38.6625 24.445 46.25 24.445C53.8375 24.445 60 22.3825 60 19.86V10.76C60 13.28 53.8375 15.3425 46.25 15.3425Z" fill="#B02739"/>
<path d="M60 4.5825C60 2.0525 53.845 0 46.25 0C38.655 0 32.5 2.05 32.5 4.5825V7.64C32.5 10.17 38.655 12.2225 46.25 12.2225C53.845 12.2225 60 10.1725 60 7.64M27.5 55.0525C27.5 57.585 21.345 59.635 13.75 59.635C6.155 59.635 0 57.585 0 55.0525V50.47C0 53 6.155 55.05 13.75 55.05C21.345 55.05 27.5 53 27.5 50.4675V55.0525Z" fill="#B02739"/>
<path d="M13.75 42.8425C6.1625 42.8425 0 40.78 0 38.26V47.36C0 49.8825 6.1625 51.945 13.75 51.945C21.3375 51.945 27.5 49.8825 27.5 47.36V38.26C27.5 40.78 21.3375 42.8425 13.75 42.8425Z" fill="#B02739"/>
<path d="M27.5 32.0825C27.5 29.5525 21.345 27.5 13.75 27.5C6.155 27.5 0 29.55 0 32.0825V35.14C0 37.67 6.155 39.7225 13.75 39.7225C21.345 39.7225 27.5 37.6725 27.5 35.14V32.0825ZM50 52.5H45V46.025L38.525 52.5L35 48.975L41.475 42.5H35V37.5H50V52.5Z" fill="#B02739"/>
</g>
<defs>
<clipPath id="clip0_139_3634">
<rect width="60" height="60" fill="white"/>
</clipPath>
</defs>
</svg>
