<svg width="48" height="40" viewBox="0 0 48 40" fill="none" xmlns="http://www.w3.org/2000/svg">
<path d="M5.28 39.03H42.72C46.1399 34.7673 48.0026 29.465 48 24C48 10.77 37.26 0 24 0C10.74 0 0 10.77 0 24C0 29.7 1.98 34.89 5.28 39.03ZM21 6C21 4.35 22.35 3 24 3C25.65 3 27 4.35 27 6C27 7.68 25.65 9 24 9C22.35 9 21 7.68 21 6ZM6 12C6 10.35 7.35 9 9 9C10.65 9 12 10.35 12 12C12 13.68 10.65 15 9 15C7.35 15 6 13.68 6 12ZM19.56 22.2C22.08 19.71 39.09 11.7 39.09 11.7C39.09 11.7 31.11 28.74 28.62 31.23C26.1 33.75 22.08 33.75 19.56 31.23C18.3637 30.0319 17.6918 28.4081 17.6918 26.715C17.6918 25.0219 18.3637 23.3981 19.56 22.2ZM3 27C3 25.35 4.35 24 6 24C7.65 24 9 25.35 9 27C9 28.68 7.65 30 6 30C4.35 30 3 28.68 3 27ZM21 27C21 25.35 22.35 24 24 24C25.65 24 27 25.35 27 27C27 28.68 25.65 30 24 30C22.35 30 21 28.68 21 27ZM39 27C39 25.35 40.35 24 42 24C43.65 24 45 25.35 45 27C45 28.68 43.65 30 42 30C40.35 30 39 28.68 39 27Z" fill="#B02739"/>
</svg>
