<svg width="46" height="46" viewBox="0 0 46 46" fill="none" xmlns="http://www.w3.org/2000/svg">
<path d="M40.5 0.5H38C35.2386 0.5 33 2.73858 33 5.5V40.5C33 43.2614 35.2386 45.5 38 45.5H40.5C43.2614 45.5 45.5 43.2614 45.5 40.5V5.5C45.5 2.73858 43.2614 0.5 40.5 0.5Z" fill="#B02739"/>
<path d="M24.25 15.5H21.75C18.9886 15.5 16.75 17.7386 16.75 20.5V40.5C16.75 43.2614 18.9886 45.5 21.75 45.5H24.25C27.0114 45.5 29.25 43.2614 29.25 40.5V20.5C29.25 17.7386 27.0114 15.5 24.25 15.5Z" fill="#B02739"/>
<path d="M8 33H5.5C2.73858 33 0.5 35.2386 0.5 38V40.5C0.5 43.2614 2.73858 45.5 5.5 45.5H8C10.7614 45.5 13 43.2614 13 40.5V38C13 35.2386 10.7614 33 8 33Z" fill="#B02739"/>
</svg>
