<svg width="50" height="50" viewBox="0 0 50 50" fill="none" xmlns="http://www.w3.org/2000/svg">
<path fill-rule="evenodd" clip-rule="evenodd" d="M13.2815 7.8125C12.9152 7.81211 12.5529 7.88838 12.2178 8.03641C11.8827 8.18445 11.5824 8.40097 11.336 8.67205C11.0896 8.94314 10.9027 9.26278 10.7873 9.61043C10.6719 9.95808 10.6305 10.326 10.6659 10.6906L11.2909 17.2406C11.4475 18.8959 11.0497 20.5563 10.1599 21.9609C9.27007 23.3654 7.93878 24.4345 6.37524 25C7.93761 25.5666 9.26753 26.6362 10.1561 28.0406C11.0447 29.445 11.4417 31.1049 11.2846 32.7594L10.6596 39.3094C10.6243 39.6742 10.6657 40.0425 10.7813 40.3903C10.8969 40.7382 11.0841 41.058 11.3308 41.3291C11.5775 41.6002 11.8783 41.8167 12.2137 41.9646C12.5491 42.1124 12.9118 42.1883 13.2784 42.1875C13.9 42.1875 14.4961 42.4344 14.9356 42.874C15.3752 43.3135 15.6221 43.9097 15.6221 44.5313C15.6221 45.1529 15.3752 45.749 14.9356 46.1885C14.4961 46.6281 13.9 46.875 13.2784 46.875C12.2591 46.8753 11.2511 46.6625 10.319 46.2503C9.38681 45.8381 8.55113 45.2356 7.86552 44.4814C7.17992 43.7273 6.65954 42.8381 6.33778 41.871C6.01602 40.9039 5.89998 39.8802 5.99712 38.8656L6.61899 32.3156C6.68176 31.6466 6.50292 30.9772 6.11485 30.4286C5.72677 29.8801 5.15512 29.4886 4.50337 29.325L4.06899 29.2156C3.12776 28.9818 2.29186 28.4397 1.69444 27.6758C1.09702 26.9118 0.772461 25.9698 0.772461 25C0.772461 24.0302 1.09702 23.0882 1.69444 22.3243C2.29186 21.5603 3.12776 21.0182 4.06899 20.7844L4.50649 20.675C5.15766 20.5108 5.7286 20.119 6.11605 19.5705C6.5035 19.022 6.6819 18.353 6.61899 17.6844L5.99399 11.1344C5.89681 10.1193 6.01302 9.09506 6.33515 8.12752C6.65728 7.15999 7.17822 6.27053 7.8645 5.51627C8.55078 4.76201 9.38723 4.15963 10.3201 3.74781C11.253 3.33599 12.2617 3.12385 13.2815 3.125C13.9031 3.125 14.4992 3.37193 14.9388 3.81147C15.3783 4.25101 15.6252 4.84715 15.6252 5.46875C15.6252 6.09036 15.3783 6.6865 14.9388 7.12604C14.4992 7.56557 13.9031 7.8125 13.2815 7.8125ZM28.2971 16.0594C28.3346 15.7061 28.4488 15.3652 28.6319 15.0607C28.8149 14.7562 29.0623 14.4954 29.3567 14.2965C29.6511 14.0976 29.9855 13.9656 30.3363 13.9095C30.6871 13.8534 31.046 13.8747 31.3877 13.9719C31.6857 14.0635 31.9989 14.0947 32.3091 14.0637C32.6193 14.0328 32.9202 13.9403 33.1941 13.7916C33.4681 13.643 33.7097 13.4411 33.9047 13.198C34.0997 12.9548 34.2443 12.6752 34.3299 12.3755C34.4156 12.0757 34.4406 11.7619 34.4034 11.4524C34.3663 11.143 34.2678 10.844 34.1137 10.573C33.9596 10.302 33.7531 10.0645 33.5061 9.87439C33.2591 9.68424 32.9766 9.54528 32.6752 9.46563C31.676 9.18098 30.6266 9.11831 29.6006 9.28202C28.5746 9.44573 27.5968 9.83186 26.7357 10.4133C25.8747 10.9948 25.1512 11.7576 24.6161 12.6481C24.0809 13.5387 23.747 14.5355 23.6377 15.5688L23.3002 18.75H20.3127C19.6911 18.75 19.095 18.9969 18.6555 19.4365C18.2159 19.876 17.969 20.4722 17.969 21.0938C17.969 21.7154 18.2159 22.3115 18.6555 22.751C19.095 23.1906 19.6911 23.4375 20.3127 23.4375H22.8065L21.7034 33.9406C21.6659 34.2939 21.5516 34.6348 21.3686 34.9393C21.1856 35.2438 20.9382 35.5046 20.6438 35.7035C20.3493 35.9024 20.015 36.0345 19.6642 36.0905C19.3133 36.1466 18.9545 36.1253 18.6127 36.0281C18.3148 35.9365 18.0016 35.9053 17.6914 35.9363C17.3812 35.9672 17.0803 36.0597 16.8063 36.2084C16.5324 36.3571 16.2908 36.5589 16.0958 36.802C15.9007 37.0452 15.7562 37.3248 15.6705 37.6246C15.5849 37.9243 15.5599 38.2381 15.5971 38.5476C15.6342 38.8571 15.7327 39.156 15.8867 39.427C16.0408 39.698 16.2474 39.9355 16.4944 40.1256C16.7414 40.3158 17.0239 40.4547 17.3252 40.5344C18.3245 40.819 19.3739 40.8817 20.3999 40.718C21.4259 40.5543 22.4037 40.1682 23.2648 39.5867C24.1258 39.0052 24.8493 38.2425 25.3844 37.3519C25.9196 36.4613 26.2535 35.4645 26.3627 34.4313L27.519 23.4375H30.469C31.0906 23.4375 31.6867 23.1906 32.1263 22.751C32.5658 22.3115 32.8127 21.7154 32.8127 21.0938C32.8127 20.4722 32.5658 19.876 32.1263 19.4365C31.6867 18.9969 31.0906 18.75 30.469 18.75H28.0159L28.2971 16.0594ZM39.3377 39.3094C39.3731 39.6742 39.3316 40.0425 39.216 40.3903C39.1004 40.7382 38.9133 41.058 38.6666 41.3291C38.4199 41.6002 38.1191 41.8167 37.7837 41.9646C37.4482 42.1124 37.0856 42.1883 36.719 42.1875C36.0974 42.1875 35.5012 42.4344 35.0617 42.874C34.6222 43.3135 34.3752 43.9097 34.3752 44.5313C34.3752 45.1529 34.6222 45.749 35.0617 46.1885C35.5012 46.6281 36.0974 46.875 36.719 46.875C37.7382 46.8753 38.7462 46.6625 39.6784 46.2503C40.6105 45.8381 41.4462 45.2356 42.1318 44.4814C42.8174 43.7273 43.3378 42.8381 43.6596 41.871C43.9813 40.9039 44.0974 39.8802 44.0002 38.8656L43.3784 32.3156C43.3156 31.6466 43.4944 30.9772 43.8825 30.4286C44.2706 29.8801 44.8422 29.4886 45.494 29.325L45.9284 29.2156C46.8696 28.9818 47.7055 28.4397 48.3029 27.6758C48.9003 26.9118 49.2249 25.9698 49.2249 25C49.2249 24.0302 48.9003 23.0882 48.3029 22.3243C47.7055 21.5603 46.8696 21.0182 45.9284 20.7844L45.4909 20.675C44.8397 20.5108 44.2688 20.119 43.8813 19.5705C43.4939 19.022 43.3155 18.353 43.3784 17.6844L44.0034 11.1344C44.1005 10.1195 43.9844 9.09558 43.6625 8.12827C43.3405 7.16095 42.8199 6.27164 42.1339 5.51743C41.448 4.76321 40.6119 4.16077 39.6794 3.74876C38.7468 3.33675 37.7385 3.12429 36.719 3.125C36.0974 3.125 35.5012 3.37193 35.0617 3.81147C34.6222 4.25101 34.3752 4.84715 34.3752 5.46875C34.3752 6.09036 34.6222 6.6865 35.0617 7.12604C35.5012 7.56557 36.0974 7.8125 36.719 7.8125C38.269 7.8125 39.4815 9.14688 39.3377 10.6906L38.7127 17.2406C38.5557 18.8951 38.9526 20.555 39.8412 21.9594C40.7298 23.3639 42.0597 24.4334 43.6221 25C42.0597 25.5666 40.7298 26.6362 39.8412 28.0406C38.9526 29.445 38.5557 31.1049 38.7127 32.7594L39.3377 39.3094Z" fill="#747A7E"/>
</svg>
