<svg width="49" height="44" viewBox="0 0 49 44" fill="none" xmlns="http://www.w3.org/2000/svg">
<path fill-rule="evenodd" clip-rule="evenodd" d="M12.509 4.6875C12.1427 4.68711 11.7804 4.76338 11.4453 4.91141C11.1103 5.05945 10.8099 5.27597 10.5635 5.54705C10.3172 5.81814 10.1303 6.13778 10.0149 6.48543C9.89946 6.83308 9.85808 7.20103 9.89341 7.56563L10.5184 14.1156C10.675 15.7709 10.2772 17.4313 9.3874 18.8359C8.49761 20.2404 7.16632 21.3095 5.60278 21.875C7.16515 22.4416 8.49507 23.5112 9.38367 24.9156C10.2723 26.32 10.6692 27.9799 10.5122 29.6344L9.88716 36.1844C9.85181 36.5492 9.89327 36.9175 10.0089 37.2653C10.1245 37.6132 10.3116 37.933 10.5583 38.2041C10.805 38.4752 11.1058 38.6917 11.4412 38.8395C11.7767 38.9874 12.1393 39.0633 12.5059 39.0625C13.1275 39.0625 13.7236 39.3094 14.1632 39.749C14.6027 40.1885 14.8497 40.7847 14.8497 41.4063C14.8497 42.0279 14.6027 42.624 14.1632 43.0635C13.7236 43.5031 13.1275 43.75 12.5059 43.75C11.4867 43.7503 10.4787 43.5375 9.5465 43.1253C8.61435 42.7131 7.77867 42.1106 7.09306 41.3564C6.40746 40.6023 5.88708 39.7131 5.56532 38.746C5.24356 37.7789 5.12752 36.7552 5.22465 35.7406L5.84653 29.1906C5.9093 28.5216 5.73046 27.8522 5.34239 27.3036C4.95431 26.7551 4.38266 26.3636 3.73091 26.2L3.29653 26.0906C2.3553 25.8568 1.5194 25.3147 0.92198 24.5508C0.324562 23.7868 0 22.8448 0 21.875C0 20.9052 0.324562 19.9632 0.92198 19.1993C1.5194 18.4353 2.3553 17.8932 3.29653 17.6594L3.73403 17.55C4.3852 17.3858 4.95613 16.994 5.34359 16.4455C5.73104 15.897 5.90944 15.228 5.84653 14.5594L5.22153 8.00938C5.12435 6.99427 5.24056 5.97006 5.56269 5.00252C5.88482 4.03499 6.40576 3.14553 7.09204 2.39127C7.77832 1.63701 8.61477 1.03463 9.54767 0.622809C10.4806 0.210993 11.4893 -0.00115026 12.509 4.69054e-06C13.1306 4.69981e-06 13.7268 0.246935 14.1663 0.686473C14.6059 1.12601 14.8528 1.72215 14.8528 2.34375C14.8528 2.96536 14.6059 3.5615 14.1663 4.00104C13.7268 4.44057 13.1306 4.6875 12.509 4.6875ZM27.5247 12.9344C27.5621 12.5811 27.6764 12.2402 27.8594 11.9357C28.0424 11.6312 28.2898 11.3704 28.5843 11.1715C28.8787 10.9726 29.213 10.8406 29.5638 10.7845C29.9147 10.7284 30.2735 10.7497 30.6153 10.8469C30.9132 10.9385 31.2265 10.9697 31.5366 10.9387C31.8468 10.9078 32.1477 10.8153 32.4217 10.6666C32.6957 10.518 32.9372 10.3161 33.1323 10.073C33.3273 9.8298 33.4718 9.55017 33.5575 9.25045C33.6431 8.95073 33.6681 8.63694 33.631 8.32745C33.5938 8.01795 33.4954 7.71897 33.3413 7.44801C33.1872 7.17704 32.9806 6.93953 32.7336 6.74939C32.4866 6.55924 32.2041 6.42028 31.9028 6.34063C30.9035 6.05598 29.8541 5.99331 28.8281 6.15702C27.8021 6.32073 26.8243 6.70686 25.9633 7.28833C25.1022 7.8698 24.3788 8.63255 23.8436 9.52312C23.3085 10.4137 22.9745 11.4105 22.8653 12.4438L22.5278 15.625H19.5403C18.9187 15.625 18.3225 15.8719 17.883 16.3115C17.4435 16.751 17.1965 17.3472 17.1965 17.9688C17.1965 18.5904 17.4435 19.1865 17.883 19.626C18.3225 20.0656 18.9187 20.3125 19.5403 20.3125H22.034L20.9309 30.8156C20.8934 31.1689 20.7792 31.5098 20.5962 31.8143C20.4131 32.1188 20.1657 32.3796 19.8713 32.5785C19.5769 32.7774 19.2425 32.9095 18.8917 32.9655C18.5409 33.0216 18.182 33.0003 17.8403 32.9031C17.5423 32.8115 17.2291 32.7803 16.9189 32.8113C16.6087 32.8422 16.3079 32.9347 16.0339 33.0834C15.7599 33.2321 15.5183 33.4339 15.3233 33.677C15.1283 33.9202 14.9837 34.1998 14.8981 34.4996C14.8125 34.7993 14.7875 35.1131 14.8246 35.4226C14.8617 35.7321 14.9602 36.031 15.1143 36.302C15.2684 36.573 15.475 36.8105 15.722 37.0006C15.969 37.1908 16.2514 37.3297 16.5528 37.4094C17.552 37.694 18.6014 37.7567 19.6274 37.593C20.6535 37.4293 21.6312 37.0432 22.4923 36.4617C23.3533 35.8802 24.0768 35.1175 24.6119 34.2269C25.1471 33.3363 25.481 32.3395 25.5903 31.3063L26.7465 20.3125H29.6965C30.3181 20.3125 30.9143 20.0656 31.3538 19.626C31.7933 19.1865 32.0403 18.5904 32.0403 17.9688C32.0403 17.3472 31.7933 16.751 31.3538 16.3115C30.9143 15.8719 30.3181 15.625 29.6965 15.625H27.2434L27.5247 12.9344ZM38.5653 36.1844C38.6006 36.5492 38.5592 36.9175 38.4436 37.2653C38.328 37.6132 38.1408 37.933 37.8941 38.2041C37.6474 38.4752 37.3466 38.6917 37.0112 38.8395C36.6758 38.9874 36.3131 39.0633 35.9465 39.0625C35.3249 39.0625 34.7288 39.3094 34.2892 39.749C33.8497 40.1885 33.6028 40.7847 33.6028 41.4063C33.6028 42.0279 33.8497 42.624 34.2892 43.0635C34.7288 43.5031 35.3249 43.75 35.9465 43.75C36.9658 43.7503 37.9738 43.5375 38.9059 43.1253C39.8381 42.7131 40.6738 42.1106 41.3594 41.3564C42.045 40.6023 42.5654 39.7131 42.8871 38.746C43.2089 37.7789 43.3249 36.7552 43.2278 35.7406L42.6059 29.1906C42.5431 28.5216 42.722 27.8522 43.11 27.3036C43.4981 26.7551 44.0698 26.3636 44.7215 26.2L45.1559 26.0906C46.0971 25.8568 46.933 25.3147 47.5305 24.5508C48.1279 23.7868 48.4524 22.8448 48.4524 21.875C48.4524 20.9052 48.1279 19.9632 47.5305 19.1993C46.933 18.4353 46.0971 17.8932 45.1559 17.6594L44.7184 17.55C44.0672 17.3858 43.4963 16.994 43.1088 16.4455C42.7214 15.897 42.543 15.228 42.6059 14.5594L43.2309 8.00938C43.3281 6.99453 43.2119 5.97058 42.89 5.00327C42.568 4.03595 42.0474 3.14664 41.3614 2.39243C40.6755 1.63822 39.8394 1.03577 38.9069 0.623759C37.9744 0.21175 36.966 -0.000714242 35.9465 4.69054e-06C35.3249 4.69981e-06 34.7288 0.246935 34.2892 0.686473C33.8497 1.12601 33.6028 1.72215 33.6028 2.34375C33.6028 2.96536 33.8497 3.5615 34.2892 4.00104C34.7288 4.44057 35.3249 4.6875 35.9465 4.6875C37.4965 4.6875 38.709 6.02188 38.5653 7.56563L37.9403 14.1156C37.7832 15.7701 38.1802 17.43 39.0688 18.8344C39.9574 20.2389 41.2873 21.3084 42.8497 21.875C41.2873 22.4416 39.9574 23.5112 39.0688 24.9156C38.1802 26.32 37.7832 27.9799 37.9403 29.6344L38.5653 36.1844Z" fill="white"/>
</svg>
