<svg width="50" height="50" viewBox="0 0 50 50" fill="none" xmlns="http://www.w3.org/2000/svg">
<path d="M23.7819 0.0301446C27.6736 -0.180786 31.8781 0.728496 35.4146 2.34183C36.7421 2.94897 40.0085 4.2231 38.1948 5.91055C37.1543 6.58895 35.497 5.08393 34.4167 4.61931C10.1365 -5.82175 -8.94999 25.339 10.3895 42.0424C27.8016 57.084 54.0831 38.8813 45.9442 16.9559C45.6088 16.0552 43.8918 13.028 43.869 12.6261C43.7951 11.3748 45.2193 10.7505 46.0949 11.694C47.3912 13.0936 49.1594 18.2471 49.529 20.194C53.9723 43.7327 25.9651 59.5696 8.14938 43.4305C-8.27909 28.5485 1.75311 1.22162 23.7819 0.0301446Z" fill="white"/>
<path d="M25.7437 9.55343H24.038C24.2967 9.10877 24.4929 7.38997 23.9044 7.22464C23.6315 7.14768 21.0105 7.69211 20.4931 7.82038C18.9068 8.21659 17.3603 8.84653 15.9532 9.676C15.4756 9.95534 13.4344 11.3349 13.2582 11.6827C12.9711 12.2471 14.4209 13.0224 14.6426 13.5212L13.514 14.6471C13.0137 14.4276 12.2405 12.9768 11.6748 13.2647C11.3279 13.4414 9.94635 15.4823 9.66491 15.9583C8.68415 17.6173 7.85121 19.7807 7.50439 21.6819C7.11209 23.8283 6.79369 24.8459 9.53983 24.0364V25.7409C9.0196 25.8236 7.38499 25.4758 7.21158 26.0858C7.14051 26.3367 7.64653 28.8279 7.76593 29.3239C8.12412 30.8232 8.68699 32.2798 9.42896 33.6252C9.77009 34.2437 11.0749 36.2761 11.5554 36.6181C12.2803 37.134 12.8972 35.6233 13.514 35.3383C15.5694 36.3872 14.1366 36.8632 13.1814 38.0148C15.7655 41.002 20.1775 42.4729 24.0494 42.6895C24.436 42.4044 24.3024 40.9137 24.038 40.4377H25.7437L25.9484 42.6895C29.8601 42.4529 34.2181 41.0106 36.8135 38.0148L35.3523 36.3103L36.4809 35.3383L38.0331 36.7977C41.0294 34.2067 42.4735 29.8512 42.7095 25.9433L40.4523 25.7381V24.2445C40.9754 24.1618 42.61 24.5095 42.7834 23.8996C42.9056 23.4663 42.2347 20.6472 42.0528 19.9859C41.7827 19.0111 40.4893 16.5227 40.458 16.0296C40.3727 14.7754 41.8197 14.1626 42.6839 15.0975C43.6931 16.1892 44.8871 20.4933 45.1173 22.0382C48.0823 41.8686 22.9606 53.5667 9.64501 38.3084C-2.7666 24.0905 9.54267 2.07965 28.1373 4.91866C29.3995 5.11249 34.9458 6.63746 35.2983 7.77763C35.5855 8.70686 34.9572 9.61044 33.9679 9.54488C33.5017 9.51353 31.0853 8.26505 30.1699 7.99996C28.8878 7.62655 27.5944 7.39852 26.2725 7.19899L25.7722 7.55814L25.7409 9.55058L25.7437 9.55343Z" fill="white"/>
<path d="M45.0853 3.40794C46.1684 3.23977 47.0781 4.75334 46.211 5.61416L25.7401 26.0573L24.1311 25.9661L16.1969 17.9137C15.5061 16.7479 16.9588 15.468 18.0475 16.2804L24.9953 23.1813L45.0853 3.40794Z" fill="white"/>
</svg>
