<svg width="80" height="80" viewBox="0 0 80 80" fill="none" xmlns="http://www.w3.org/2000/svg">
<rect width="80" height="80" rx="40" fill="url(#paint0_linear_5192_5208)"/>
<path d="M51.2503 44.348L56.5364 47.5C57.6284 48.152 58.1922 49.42 57.9422 50.668C56.9202 55.786 51.7804 59.066 46.7464 57.684C34.8684 54.424 25.5902 45.174 22.3182 33.27C20.9342 28.234 24.2104 23.09 29.3304 22.066L29.3641 22.06C30.6141 21.81 31.8884 22.376 32.5384 23.474L35.6644 28.752C36.7764 30.628 36.2241 33.048 34.4061 34.256L31.0843 36.466C33.4283 42.08 37.9082 46.578 43.5062 48.918L45.7361 45.588C46.9541 43.774 49.3743 43.23 51.2503 44.348ZM51.5003 36C51.5003 31.864 48.1343 28.5 44.0003 28.5C43.1723 28.5 42.5003 29.172 42.5003 30C42.5003 30.828 43.1723 31.5 44.0003 31.5C46.4803 31.5 48.5003 33.518 48.5003 36C48.5003 36.828 49.1723 37.5 50.0003 37.5C50.8283 37.5 51.5003 36.828 51.5003 36ZM56.0003 37.5C55.1723 37.5 54.5003 36.828 54.5003 36C54.5003 30.21 49.7903 25.5 44.0003 25.5C43.1723 25.5 42.5003 24.828 42.5003 24C42.5003 23.172 43.1723 22.5 44.0003 22.5C51.4443 22.5 57.5003 28.556 57.5003 36C57.5003 36.828 56.8283 37.5 56.0003 37.5Z" fill="white"/>
<defs>
<linearGradient id="paint0_linear_5192_5208" x1="40" y1="0" x2="40" y2="80" gradientUnits="userSpaceOnUse">
<stop stop-color="#85E2B8"/>
<stop offset="1" stop-color="#0A8A50"/>
</linearGradient>
</defs>
</svg>
