<svg width="60" height="60" viewBox="0 0 60 60" fill="none" xmlns="http://www.w3.org/2000/svg">
<rect opacity="0.1" width="60" height="60" rx="30" fill="#027440"/>
<path d="M22.3774 28.2858C24.4174 32.295 27.704 35.5675 31.7132 37.6217L34.8299 34.505C35.2124 34.1225 35.779 33.995 36.2749 34.165C37.8615 34.6892 39.5757 34.9725 41.3324 34.9725C42.1115 34.9725 42.749 35.61 42.749 36.3892V41.3333C42.749 42.1125 42.1115 42.75 41.3324 42.75C28.0299 42.75 17.249 31.9692 17.249 18.6667C17.249 17.8875 17.8865 17.25 18.6657 17.25H23.624C24.4032 17.25 25.0407 17.8875 25.0407 18.6667C25.0407 20.4375 25.324 22.1375 25.8482 23.7242C26.004 24.22 25.8907 24.7725 25.494 25.1692L22.3774 28.2858Z" fill="#027440"/>
</svg>
