<svg width="50" height="50" viewBox="0 0 50 50" fill="none" xmlns="http://www.w3.org/2000/svg">
<path d="M41.7285 14.0967C42.0215 14.3896 42.1875 14.7852 42.1875 15.2002V45.3125C42.1875 46.1768 41.4893 46.875 40.625 46.875H9.375C8.51074 46.875 7.8125 46.1768 7.8125 45.3125V4.6875C7.8125 3.82324 8.51074 3.125 9.375 3.125H30.1123C30.5273 3.125 30.9277 3.29102 31.2207 3.58398L41.7285 14.0967ZM38.584 15.918L29.3945 6.72852V15.918H38.584ZM28.0928 23.332L25.1035 28.3271L22.085 23.3301C22.0328 23.2438 21.9592 23.1724 21.8713 23.1229C21.7835 23.0734 21.6843 23.0473 21.5835 23.0474H19.7065C19.5959 23.0474 19.4876 23.0787 19.394 23.1377C19.3289 23.1787 19.2725 23.2322 19.228 23.2951C19.1835 23.3579 19.1519 23.4289 19.1349 23.504C19.1179 23.5791 19.1159 23.6568 19.1289 23.7327C19.142 23.8086 19.1698 23.8812 19.2109 23.9463L23.2314 30.3145L19.1567 36.7979C19.098 36.8913 19.0669 36.9995 19.0669 37.1099C19.0669 37.2653 19.1286 37.4143 19.2385 37.5242C19.3484 37.6341 19.4974 37.6958 19.6528 37.6958H21.3355C21.4354 37.6958 21.5337 37.6702 21.6209 37.6215C21.7082 37.5728 21.7815 37.5025 21.834 37.4175L24.8955 32.4629L27.9375 37.4165C27.9899 37.5019 28.0634 37.5724 28.1508 37.6213C28.2383 37.6702 28.3368 37.6958 28.437 37.6958H30.2671C30.3793 37.6958 30.4891 37.6636 30.5835 37.603C30.6483 37.5615 30.7042 37.5076 30.7481 37.4444C30.7921 37.3812 30.8231 37.31 30.8395 37.2348C30.856 37.1597 30.8574 37.082 30.8438 37.0063C30.8302 36.9305 30.8018 36.8582 30.7603 36.7935L26.667 30.4189L30.832 23.9507C30.8928 23.856 30.925 23.7458 30.9248 23.6333C30.9248 23.4779 30.8631 23.3289 30.7532 23.219C30.6433 23.1091 30.4943 23.0474 30.3389 23.0474H28.5957C28.4945 23.0474 28.395 23.0737 28.3069 23.1237C28.2188 23.1737 28.1452 23.2456 28.0933 23.3325L28.0928 23.332Z" fill="#747A7E"/>
</svg>
