<svg width="40" height="36" viewBox="0 0 40 36" fill="none" xmlns="http://www.w3.org/2000/svg">
<path d="M36.4608 14.5833C37.2376 14.5834 37.9866 14.8728 38.5617 15.395C39.1367 15.9173 39.4966 16.6351 39.5712 17.4083L39.5858 17.7083V26.0417C39.5858 28.4516 38.6577 30.769 36.9943 32.5128C35.3308 34.2565 33.0597 35.2927 30.6525 35.4062L30.2108 35.4167H3.12746C2.53566 35.4171 1.95588 35.2495 1.4556 34.9334C0.955314 34.6172 0.555085 34.1655 0.301478 33.6308C0.0478714 33.0961 -0.048687 32.5004 0.0230372 31.9129C0.0947614 31.3255 0.331819 30.7705 0.70663 30.3125L0.917047 30.0833L7.16705 23.8333C7.7329 23.2643 8.49596 22.9348 9.29813 22.9131C10.1003 22.8913 10.8801 23.179 11.476 23.7165C12.0718 24.2539 12.4381 25.0001 12.4989 25.8002C12.5597 26.6004 12.3103 27.3933 11.8025 28.0146L11.5879 28.2521L10.6712 29.1667H30.2108C30.9876 29.1666 31.7366 28.8773 32.3117 28.355C32.8867 27.8327 33.2466 27.1149 33.3212 26.3417L33.3358 26.0417V17.7083C33.3358 16.8795 33.665 16.0847 34.2511 15.4986C34.8371 14.9126 35.632 14.5833 36.4608 14.5833ZM36.4608 9.70115e-07C37.0526 -0.000465257 37.6324 0.167125 38.1327 0.483273C38.6329 0.799422 39.0332 1.25113 39.2868 1.78584C39.5404 2.32056 39.6369 2.91629 39.5652 3.50374C39.4935 4.09118 39.2564 4.64618 38.8816 5.10417L38.6712 5.33333L32.4212 11.5833C31.8554 12.1523 31.0923 12.4818 30.2901 12.5036C29.488 12.5254 28.7082 12.2377 28.1123 11.7002C27.5164 11.1627 27.1502 10.4166 27.0894 9.61645C27.0286 8.81629 27.278 8.02341 27.7858 7.40208L28.0004 7.16458L28.917 6.25H9.37746C8.60062 6.25004 7.85165 6.53942 7.27659 7.06171C6.70153 7.584 6.34162 8.30175 6.26705 9.075L6.25246 9.375V17.7083C6.25207 18.5109 5.94293 19.2825 5.38911 19.8633C4.83529 20.4441 4.07925 20.7896 3.27764 20.8282C2.47603 20.8667 1.69031 20.5954 1.08329 20.0705C0.476274 19.5455 0.0944877 18.8071 0.017047 18.0083L0.00246369 17.7083V9.375C0.00246553 6.96506 0.930523 4.64768 2.59398 2.90392C4.25744 1.16015 6.52853 0.123953 8.9358 0.0104179L9.37746 9.70115e-07H36.4608Z" fill="white"/>
</svg>
