<svg width="35" height="44" viewBox="0 0 35 44" fill="none" xmlns="http://www.w3.org/2000/svg">
<path d="M33.916 10.9717C34.209 11.2646 34.375 11.6602 34.375 12.0752V42.1875C34.375 43.0518 33.6768 43.75 32.8125 43.75H1.5625C0.698242 43.75 0 43.0518 0 42.1875V1.5625C0 0.698242 0.698242 0 1.5625 0H22.2998C22.7148 0 23.1152 0.166016 23.4082 0.458984L33.916 10.9717ZM30.7715 12.793L21.582 3.60352V12.793H30.7715ZM20.2803 20.207L17.291 25.2021L14.2725 20.2051C14.2203 20.1188 14.1467 20.0474 14.0588 19.9979C13.971 19.9484 13.8718 19.9223 13.771 19.9224H11.894C11.7834 19.9224 11.6751 19.9537 11.5815 20.0127C11.5164 20.0537 11.46 20.1072 11.4155 20.1701C11.371 20.2329 11.3394 20.3039 11.3224 20.379C11.3054 20.4541 11.3034 20.5318 11.3164 20.6077C11.3295 20.6836 11.3573 20.7562 11.3984 20.8213L15.4189 27.1895L11.3442 33.6729C11.2855 33.7663 11.2544 33.8745 11.2544 33.9849C11.2544 34.1403 11.3161 34.2893 11.426 34.3992C11.5359 34.5091 11.6849 34.5708 11.8403 34.5708H13.523C13.6229 34.5708 13.7212 34.5452 13.8084 34.4965C13.8957 34.4478 13.969 34.3775 14.0215 34.2925L17.083 29.3379L20.125 34.2915C20.1774 34.3769 20.2509 34.4474 20.3383 34.4963C20.4258 34.5452 20.5243 34.5708 20.6245 34.5708H22.4546C22.5668 34.5708 22.6766 34.5386 22.771 34.478C22.8358 34.4365 22.8917 34.3826 22.9356 34.3194C22.9796 34.2562 23.0106 34.185 23.027 34.1098C23.0435 34.0347 23.0449 33.957 23.0313 33.8813C23.0177 33.8055 22.9893 33.7332 22.9478 33.6685L18.8545 27.2939L23.0195 20.8257C23.0803 20.731 23.1125 20.6208 23.1123 20.5083C23.1123 20.3529 23.0506 20.2039 22.9407 20.094C22.8308 19.9841 22.6818 19.9224 22.5264 19.9224H20.7832C20.682 19.9224 20.5825 19.9487 20.4944 19.9987C20.4063 20.0487 20.3322 20.1201 20.2803 20.207Z" fill="white"/>
</svg>
