<svg width="50" height="50" viewBox="0 0 50 50" fill="none" xmlns="http://www.w3.org/2000/svg">
<path d="M41.6669 21.875C42.4437 21.875 43.1927 22.1644 43.7677 22.6867C44.3428 23.209 44.7027 23.9267 44.7773 24.7L44.7919 25V33.3333C44.7918 35.7432 43.8638 38.0606 42.2003 39.8044C40.5369 41.5481 38.2658 42.5843 35.8585 42.6979L35.4169 42.7083H8.33352C7.74171 42.7088 7.16194 42.5412 6.66165 42.225C6.16137 41.9089 5.76114 41.4572 5.50753 40.9224C5.25393 40.3877 5.15737 39.792 5.22909 39.2046C5.30082 38.6171 5.53787 38.0621 5.91269 37.6041L6.1231 37.375L12.3731 31.125C12.939 30.556 13.702 30.2264 14.5042 30.2047C15.3064 30.1829 16.0862 30.4706 16.682 31.0081C17.2779 31.5456 17.6442 32.2917 17.7049 33.0918C17.7657 33.892 17.5164 34.6849 17.0085 35.3062L16.7939 35.5437L15.8773 36.4583H35.4169C36.1937 36.4583 36.9427 36.1689 37.5177 35.6466C38.0928 35.1243 38.4527 34.4065 38.5273 33.6333L38.5419 33.3333V25C38.5419 24.1712 38.8711 23.3763 39.4571 22.7903C40.0432 22.2042 40.838 21.875 41.6669 21.875ZM41.6669 7.29163C42.2587 7.29116 42.8384 7.45875 43.3387 7.7749C43.839 8.09105 44.2392 8.54276 44.4928 9.07747C44.7464 9.61218 44.843 10.2079 44.7713 10.7954C44.6996 11.3828 44.4625 11.9378 44.0877 12.3958L43.8773 12.625L37.6273 18.875C37.0614 19.444 36.2984 19.7735 35.4962 19.7952C34.694 19.817 33.9142 19.5293 33.3183 18.9918C32.7225 18.4544 32.3562 17.7082 32.2954 16.9081C32.2346 16.1079 32.484 15.315 32.9919 14.6937L33.2064 14.4562L34.1231 13.5416H14.5835C13.8067 13.5417 13.0577 13.831 12.4826 14.3533C11.9076 14.8756 11.5477 15.5934 11.4731 16.3666L11.4585 16.6666V25C11.4581 25.8025 11.149 26.5741 10.5952 27.1549C10.0413 27.7357 9.2853 28.0812 8.4837 28.1198C7.68209 28.1584 6.89637 27.8871 6.28935 27.3621C5.68233 26.8371 5.30054 26.0987 5.2231 25.3L5.20852 25V16.6666C5.20852 14.2567 6.13658 11.9393 7.80004 10.1955C9.4635 8.45178 11.7346 7.41558 14.1419 7.30204L14.5835 7.29163H41.6669Z" fill="#747A7E"/>
</svg>
