<svg width="45" height="50" viewBox="0 0 45 50" fill="none" xmlns="http://www.w3.org/2000/svg">
<path d="M38.3004 33.0473C36.6126 34.6922 34.6186 34.2809 33.08 35.5402C32.3322 36.1522 31.9907 37.0828 31.3804 37.8109C30.77 38.5389 30.1145 38.958 29.4119 39.501L34.2398 46.6395L35.3507 42.2951C35.3114 41.5926 33.237 39.2236 32.9877 38.4051C32.7385 37.5865 33.1545 36.9274 34.0142 37.073C34.7128 37.1911 36.3437 40.4298 36.8913 41.1145L41.5819 41.9291L37.6802 35.7508C37.3918 34.6922 38.532 34.1649 39.2994 34.8732L44.2608 42.5567C44.4511 43.2218 44.5964 43.8869 43.8192 44.0994L37.1759 43.1706C36.7343 43.4422 35.8119 48.2609 35.4841 49.1365C35.1564 50.012 34.4714 50.2757 33.7315 49.5792L27.6044 40.05C26.9685 39.9634 26.3307 40.0657 25.6909 39.9792C24.8332 39.8631 24.0855 39.3397 23.2946 39.1429C20.178 38.3716 18.4195 41.5218 14.4669 39.1626C12.5671 38.0293 12.1353 35.6858 10.2061 34.8968C9.46427 34.5938 8.59485 34.5977 7.88636 34.1727L2.82487 41.931L7.48796 41.1617C7.9472 40.4435 9.61343 37.2776 10.2709 37.0966C10.9284 36.9156 11.5525 37.6475 11.421 38.2555C11.2247 39.1606 9.03054 41.5729 9.00699 42.2931L10.2375 46.6376L14.1215 40.6737C14.932 39.6152 16.1272 40.6698 15.6307 41.7461C13.7898 43.9459 12.4219 47.4069 10.6065 49.5123C10.002 50.2127 9.46623 50.136 8.92653 49.4277L7.22497 43.1096L0.982012 44.1446C-0.13077 44.1564 -0.0934811 43.4343 0.116515 42.5272L6.0592 33.1633C6.07883 32.819 5.388 32.1461 5.15053 31.729C3.95532 29.6275 4.53035 29.0609 4.44596 27.0027C4.32821 24.1005 1.0664 23.3784 1.54527 19.2366C1.79059 17.1096 2.68553 16.7042 3.68252 15.197C5.27417 12.7926 3.26449 10.3469 5.76678 7.42495C7.08563 5.88627 8.2357 5.89021 9.95295 5.29205C12.1353 4.53059 12.2197 2.77154 13.7682 1.46504C15.2774 0.190023 16.9221 -0.0893788 18.865 0.174282C20.7 0.422202 21.1043 1.53391 23.3456 0.910171C25.4593 0.321853 26.2855 -0.445517 28.6995 0.323821C31.767 1.29976 31.9024 4.32202 34.3517 5.2527C36.4321 6.04368 37.853 5.98662 39.2111 8.18248C40.6967 10.583 39.5859 11.9603 40.2277 14.0814C40.9107 16.3422 42.7908 16.7082 42.9144 19.7757C43.0361 22.7566 41.7447 23.0341 40.5888 25.1099C39.1365 27.717 41.311 30.1214 38.3063 33.0512L38.3004 33.0473ZM16.8769 1.93136C14.3138 2.36817 14.0508 4.77654 12.3512 6.0791C10.4711 7.52136 7.97468 7.06488 6.72255 9.26664C5.75108 10.9726 6.50078 12.8497 5.97873 14.7012C5.26239 17.2434 2.88767 17.6802 3.47645 20.8894C3.79242 22.6189 5.48416 23.5338 6.0121 25.2653C6.75003 27.6894 5.32716 29.6275 7.5174 31.7053C8.87157 32.9902 10.8499 32.7167 12.4376 33.9858C13.6465 34.9519 14.0744 36.5634 15.3128 37.4311C17.9485 39.2767 19.8267 37.0376 22.2701 37.0691C24.5192 37.0966 25.7439 38.8399 28.2579 37.9191C30.2578 37.1871 30.5679 34.9322 32.346 33.7753C34.1339 32.6124 36.0749 33.0473 37.4467 31.0875C38.8185 29.1278 37.6881 27.41 38.3927 25.2673C39.164 22.918 41.4896 22.306 40.9283 19.2602C40.6202 17.5857 38.9952 16.6216 38.43 14.9963C37.643 12.7336 38.8735 10.9903 37.3859 8.97937C35.961 7.0511 33.7276 7.48201 31.9063 6.08303C30.4619 4.9733 30.1302 3.07848 28.3698 2.26979C25.8557 1.11677 24.6841 2.84631 22.431 2.93682C20.178 3.02733 18.8945 1.59097 16.8789 1.9353L16.8769 1.93136Z" fill="white"/>
<path d="M36.7651 20.1467C36.7651 28.187 30.2465 34.7055 22.2063 34.7055C14.166 34.7055 7.64746 28.187 7.64746 20.1467C7.64746 12.1065 14.166 5.58789 22.2063 5.58789C30.2465 5.58789 36.7651 12.1065 36.7651 20.1467ZM34.9018 20.1467C34.9018 13.1333 29.2157 7.44726 22.2004 7.44726C15.1851 7.44726 9.49897 13.1333 9.49897 20.1467C9.49897 27.1601 15.1851 32.8462 22.2004 32.8462C29.2157 32.8462 34.9018 27.1601 34.9018 20.1467Z" fill="white"/>
<path d="M25.061 16.7718C26.0347 17.3004 29.3995 17.1579 30.0257 17.7638C30.4478 18.1736 30.3163 18.534 30.0179 18.9578C29.264 20.023 27.7053 21.0645 26.8691 22.1338C26.7218 22.5258 27.6327 25.8959 27.6248 26.6899C27.619 27.2581 26.9888 27.6878 26.4588 27.5967C25.4694 27.4245 23.1882 25.5236 22.3068 25.5355L18.3079 27.5868C15.8639 28.2502 18.0684 23.2446 17.8093 22.2486L14.5918 18.9657C13.3746 16.849 18.7084 17.3975 19.584 16.7282C20.2436 15.9956 21.2919 12.4909 22.1694 12.3622C22.5443 12.3067 22.9625 12.5087 23.1863 12.8136L25.061 16.7718ZM27.2283 19.033L23.9381 18.4251L22.2381 15.4768L20.7029 18.4469L17.5364 19.031C17.4717 19.2864 17.6424 19.326 17.7563 19.4745C18.1038 19.928 19.5545 20.9635 19.6762 21.3853C19.9491 22.3238 19.3719 23.8208 19.2993 24.8049C19.4799 24.989 21.5471 23.6485 21.9377 23.5416C23.1588 23.207 24.156 24.591 25.3182 24.8049C25.4517 23.7059 24.5467 22.1635 25.171 21.215C25.2986 21.021 27.3323 19.1379 27.2263 19.031L27.2283 19.033Z" fill="white"/>
</svg>
