<svg width="298" height="29" viewBox="0 0 298 29" fill="none" xmlns="http://www.w3.org/2000/svg">
<path d="M4.96 10.46H15.07V14.24H4.96V10.46ZM5.32 19.1H16.75V23H0.49V2H16.36V5.9H5.32V19.1ZM18.0712 23L25.3012 13.52L25.2112 16.1L18.2812 6.86H23.5312L27.9112 12.89L25.9312 12.95L30.4612 6.86H35.4412L28.4812 16.01V13.49L35.6812 23H30.3712L25.7812 16.58L27.7312 16.85L23.1712 23H18.0712ZM45.2549 23.24C43.5149 23.24 41.9649 22.89 40.6049 22.19C39.2449 21.47 38.1749 20.48 37.3949 19.22C36.6349 17.96 36.2549 16.53 36.2549 14.93C36.2549 13.31 36.6349 11.88 37.3949 10.64C38.1749 9.38 39.2449 8.4 40.6049 7.7C41.9649 6.98 43.5149 6.62 45.2549 6.62C46.9549 6.62 48.4349 6.98 49.6949 7.7C50.9549 8.4 51.8849 9.41 52.4849 10.73L48.8549 12.68C48.4349 11.92 47.9049 11.36 47.2649 11C46.6449 10.64 45.9649 10.46 45.2249 10.46C44.4249 10.46 43.7049 10.64 43.0649 11C42.4249 11.36 41.9149 11.87 41.5349 12.53C41.1749 13.19 40.9949 13.99 40.9949 14.93C40.9949 15.87 41.1749 16.67 41.5349 17.33C41.9149 17.99 42.4249 18.5 43.0649 18.86C43.7049 19.22 44.4249 19.4 45.2249 19.4C45.9649 19.4 46.6449 19.23 47.2649 18.89C47.9049 18.53 48.4349 17.96 48.8549 17.18L52.4849 19.16C51.8849 20.46 50.9549 21.47 49.6949 22.19C48.4349 22.89 46.9549 23.24 45.2549 23.24ZM62.9845 23.24C61.1445 23.24 59.5245 22.88 58.1245 22.16C56.7445 21.44 55.6745 20.46 54.9145 19.22C54.1545 17.96 53.7745 16.53 53.7745 14.93C53.7745 13.31 54.1445 11.88 54.8845 10.64C55.6445 9.38 56.6745 8.4 57.9745 7.7C59.2745 6.98 60.7445 6.62 62.3845 6.62C63.9645 6.62 65.3845 6.96 66.6445 7.64C67.9245 8.3 68.9345 9.26 69.6745 10.52C70.4145 11.76 70.7845 13.25 70.7845 14.99C70.7845 15.17 70.7745 15.38 70.7545 15.62C70.7345 15.84 70.7145 16.05 70.6945 16.25H57.5845V13.52H68.2345L66.4345 14.33C66.4345 13.49 66.2645 12.76 65.9245 12.14C65.5845 11.52 65.1145 11.04 64.5145 10.7C63.9145 10.34 63.2145 10.16 62.4145 10.16C61.6145 10.16 60.9045 10.34 60.2845 10.7C59.6845 11.04 59.2145 11.53 58.8745 12.17C58.5345 12.79 58.3645 13.53 58.3645 14.39V15.11C58.3645 15.99 58.5545 16.77 58.9345 17.45C59.3345 18.11 59.8845 18.62 60.5845 18.98C61.3045 19.32 62.1445 19.49 63.1045 19.49C63.9645 19.49 64.7145 19.36 65.3545 19.1C66.0145 18.84 66.6145 18.45 67.1545 17.93L69.6445 20.63C68.9045 21.47 67.9745 22.12 66.8545 22.58C65.7345 23.02 64.4445 23.24 62.9845 23.24ZM73.9002 23V0.739999H78.5802V23H73.9002Z" fill="#027440"/>
<path d="M80.4937 23L89.8537 2H94.6537L104.044 23H98.9437L91.2637 4.46H93.1837L85.4737 23H80.4937ZM85.1737 18.5L86.4637 14.81H97.2637L98.5837 18.5H85.1737ZM113.546 23.24C111.806 23.24 110.256 22.89 108.896 22.19C107.536 21.47 106.466 20.48 105.686 19.22C104.926 17.96 104.546 16.53 104.546 14.93C104.546 13.31 104.926 11.88 105.686 10.64C106.466 9.38 107.536 8.4 108.896 7.7C110.256 6.98 111.806 6.62 113.546 6.62C115.246 6.62 116.726 6.98 117.986 7.7C119.246 8.4 120.176 9.41 120.776 10.73L117.146 12.68C116.726 11.92 116.196 11.36 115.556 11C114.936 10.64 114.256 10.46 113.516 10.46C112.716 10.46 111.996 10.64 111.356 11C110.716 11.36 110.206 11.87 109.826 12.53C109.466 13.19 109.286 13.99 109.286 14.93C109.286 15.87 109.466 16.67 109.826 17.33C110.206 17.99 110.716 18.5 111.356 18.86C111.996 19.22 112.716 19.4 113.516 19.4C114.256 19.4 114.936 19.23 115.556 18.89C116.196 18.53 116.726 17.96 117.146 17.18L120.776 19.16C120.176 20.46 119.246 21.47 117.986 22.19C116.726 22.89 115.246 23.24 113.546 23.24ZM131.065 23.24C129.325 23.24 127.775 22.89 126.415 22.19C125.055 21.47 123.985 20.48 123.205 19.22C122.445 17.96 122.065 16.53 122.065 14.93C122.065 13.31 122.445 11.88 123.205 10.64C123.985 9.38 125.055 8.4 126.415 7.7C127.775 6.98 129.325 6.62 131.065 6.62C132.765 6.62 134.245 6.98 135.505 7.7C136.765 8.4 137.695 9.41 138.295 10.73L134.665 12.68C134.245 11.92 133.715 11.36 133.075 11C132.455 10.64 131.775 10.46 131.035 10.46C130.235 10.46 129.515 10.64 128.875 11C128.235 11.36 127.725 11.87 127.345 12.53C126.985 13.19 126.805 13.99 126.805 14.93C126.805 15.87 126.985 16.67 127.345 17.33C127.725 17.99 128.235 18.5 128.875 18.86C129.515 19.22 130.235 19.4 131.035 19.4C131.775 19.4 132.455 19.23 133.075 18.89C133.715 18.53 134.245 17.96 134.665 17.18L138.295 19.16C137.695 20.46 136.765 21.47 135.505 22.19C134.245 22.89 132.765 23.24 131.065 23.24ZM148.795 23.24C146.955 23.24 145.335 22.88 143.935 22.16C142.555 21.44 141.485 20.46 140.725 19.22C139.965 17.96 139.585 16.53 139.585 14.93C139.585 13.31 139.955 11.88 140.695 10.64C141.455 9.38 142.485 8.4 143.785 7.7C145.085 6.98 146.555 6.62 148.195 6.62C149.775 6.62 151.195 6.96 152.455 7.64C153.735 8.3 154.745 9.26 155.485 10.52C156.225 11.76 156.595 13.25 156.595 14.99C156.595 15.17 156.585 15.38 156.565 15.62C156.545 15.84 156.525 16.05 156.505 16.25H143.395V13.52H154.045L152.245 14.33C152.245 13.49 152.075 12.76 151.735 12.14C151.395 11.52 150.925 11.04 150.325 10.7C149.725 10.34 149.025 10.16 148.225 10.16C147.425 10.16 146.715 10.34 146.095 10.7C145.495 11.04 145.025 11.53 144.685 12.17C144.345 12.79 144.175 13.53 144.175 14.39V15.11C144.175 15.99 144.365 16.77 144.745 17.45C145.145 18.11 145.695 18.62 146.395 18.98C147.115 19.32 147.955 19.49 148.915 19.49C149.775 19.49 150.525 19.36 151.165 19.1C151.825 18.84 152.425 18.45 152.965 17.93L155.455 20.63C154.715 21.47 153.785 22.12 152.665 22.58C151.545 23.02 150.255 23.24 148.795 23.24ZM165.141 23.24C163.761 23.24 162.431 23.08 161.151 22.76C159.891 22.42 158.891 22 158.151 21.5L159.711 18.14C160.451 18.6 161.321 18.98 162.321 19.28C163.341 19.56 164.341 19.7 165.321 19.7C166.401 19.7 167.161 19.57 167.601 19.31C168.061 19.05 168.291 18.69 168.291 18.23C168.291 17.85 168.111 17.57 167.751 17.39C167.411 17.19 166.951 17.04 166.371 16.94C165.791 16.84 165.151 16.74 164.451 16.64C163.771 16.54 163.081 16.41 162.381 16.25C161.681 16.07 161.041 15.81 160.461 15.47C159.881 15.13 159.411 14.67 159.051 14.09C158.711 13.51 158.541 12.76 158.541 11.84C158.541 10.82 158.831 9.92 159.411 9.14C160.011 8.36 160.871 7.75 161.991 7.31C163.111 6.85 164.451 6.62 166.011 6.62C167.111 6.62 168.231 6.74 169.371 6.98C170.511 7.22 171.461 7.57 172.221 8.03L170.661 11.36C169.881 10.9 169.091 10.59 168.291 10.43C167.511 10.25 166.751 10.16 166.011 10.16C164.971 10.16 164.211 10.3 163.731 10.58C163.251 10.86 163.011 11.22 163.011 11.66C163.011 12.06 163.181 12.36 163.521 12.56C163.881 12.76 164.351 12.92 164.931 13.04C165.511 13.16 166.141 13.27 166.821 13.37C167.521 13.45 168.221 13.58 168.921 13.76C169.621 13.94 170.251 14.2 170.811 14.54C171.391 14.86 171.861 15.31 172.221 15.89C172.581 16.45 172.761 17.19 172.761 18.11C172.761 19.11 172.461 20 171.861 20.78C171.261 21.54 170.391 22.14 169.251 22.58C168.131 23.02 166.761 23.24 165.141 23.24ZM181.078 23.24C179.698 23.24 178.368 23.08 177.088 22.76C175.828 22.42 174.828 22 174.088 21.5L175.648 18.14C176.388 18.6 177.258 18.98 178.258 19.28C179.278 19.56 180.278 19.7 181.258 19.7C182.338 19.7 183.098 19.57 183.538 19.31C183.998 19.05 184.228 18.69 184.228 18.23C184.228 17.85 184.048 17.57 183.688 17.39C183.348 17.19 182.888 17.04 182.308 16.94C181.728 16.84 181.088 16.74 180.388 16.64C179.708 16.54 179.018 16.41 178.318 16.25C177.618 16.07 176.978 15.81 176.398 15.47C175.818 15.13 175.348 14.67 174.988 14.09C174.648 13.51 174.478 12.76 174.478 11.84C174.478 10.82 174.768 9.92 175.348 9.14C175.948 8.36 176.808 7.75 177.928 7.31C179.048 6.85 180.388 6.62 181.948 6.62C183.048 6.62 184.168 6.74 185.308 6.98C186.448 7.22 187.398 7.57 188.158 8.03L186.598 11.36C185.818 10.9 185.028 10.59 184.228 10.43C183.448 10.25 182.688 10.16 181.948 10.16C180.908 10.16 180.148 10.3 179.668 10.58C179.188 10.86 178.948 11.22 178.948 11.66C178.948 12.06 179.118 12.36 179.458 12.56C179.818 12.76 180.288 12.92 180.868 13.04C181.448 13.16 182.078 13.27 182.758 13.37C183.458 13.45 184.158 13.58 184.858 13.76C185.558 13.94 186.188 14.2 186.748 14.54C187.328 14.86 187.798 15.31 188.158 15.89C188.518 16.45 188.698 17.19 188.698 18.11C188.698 19.11 188.398 20 187.798 20.78C187.198 21.54 186.328 22.14 185.188 22.58C184.068 23.02 182.698 23.24 181.078 23.24Z" fill="#B02739"/>
<path d="M203.802 11.06H214.602V13.61H203.802V11.06ZM204.072 20.39H216.312V23H201.072V2H215.892V4.61H204.072V20.39ZM218.088 23L224.928 14.12L224.898 15.59L218.388 7.1H221.598L226.578 13.64H225.348L230.328 7.1H233.478L226.878 15.65L226.908 14.12L233.808 23H230.538L225.288 16.04L226.458 16.22L221.298 23H218.088ZM245.381 23.18C244.061 23.18 242.851 22.88 241.751 22.28C240.671 21.66 239.801 20.75 239.141 19.55C238.501 18.35 238.181 16.85 238.181 15.05C238.181 13.25 238.491 11.75 239.111 10.55C239.751 9.35 240.611 8.45 241.691 7.85C242.791 7.25 244.021 6.95 245.381 6.95C246.941 6.95 248.321 7.29 249.521 7.97C250.721 8.65 251.671 9.6 252.371 10.82C253.071 12.02 253.421 13.43 253.421 15.05C253.421 16.67 253.071 18.09 252.371 19.31C251.671 20.53 250.721 21.48 249.521 22.16C248.321 22.84 246.941 23.18 245.381 23.18ZM236.951 28.82V7.1H239.711V11.39L239.531 15.08L239.831 18.77V28.82H236.951ZM245.141 20.66C246.161 20.66 247.071 20.43 247.871 19.97C248.691 19.51 249.331 18.86 249.791 18.02C250.271 17.16 250.511 16.17 250.511 15.05C250.511 13.91 250.271 12.93 249.791 12.11C249.331 11.27 248.691 10.62 247.871 10.16C247.071 9.7 246.161 9.47 245.141 9.47C244.141 9.47 243.231 9.7 242.411 10.16C241.611 10.62 240.971 11.27 240.491 12.11C240.031 12.93 239.801 13.91 239.801 15.05C239.801 16.17 240.031 17.16 240.491 18.02C240.971 18.86 241.611 19.51 242.411 19.97C243.231 20.43 244.141 20.66 245.141 20.66ZM264.48 23.18C262.78 23.18 261.28 22.83 259.98 22.13C258.7 21.43 257.7 20.47 256.98 19.25C256.28 18.03 255.93 16.63 255.93 15.05C255.93 13.47 256.27 12.07 256.95 10.85C257.65 9.63 258.6 8.68 259.8 8C261.02 7.3 262.39 6.95 263.91 6.95C265.45 6.95 266.81 7.29 267.99 7.97C269.17 8.65 270.09 9.61 270.75 10.85C271.43 12.07 271.77 13.5 271.77 15.14C271.77 15.26 271.76 15.4 271.74 15.56C271.74 15.72 271.73 15.87 271.71 16.01H258.18V13.94H270.21L269.04 14.66C269.06 13.64 268.85 12.73 268.41 11.93C267.97 11.13 267.36 10.51 266.58 10.07C265.82 9.61 264.93 9.38 263.91 9.38C262.91 9.38 262.02 9.61 261.24 10.07C260.46 10.51 259.85 11.14 259.41 11.96C258.97 12.76 258.75 13.68 258.75 14.72V15.2C258.75 16.26 258.99 17.21 259.47 18.05C259.97 18.87 260.66 19.51 261.54 19.97C262.42 20.43 263.43 20.66 264.57 20.66C265.51 20.66 266.36 20.5 267.12 20.18C267.9 19.86 268.58 19.38 269.16 18.74L270.75 20.6C270.03 21.44 269.13 22.08 268.05 22.52C266.99 22.96 265.8 23.18 264.48 23.18ZM275.769 23V7.1H278.529V11.42L278.259 10.34C278.699 9.24 279.439 8.4 280.479 7.82C281.519 7.24 282.799 6.95 284.319 6.95V9.74C284.199 9.72 284.079 9.71 283.959 9.71C283.859 9.71 283.759 9.71 283.659 9.71C282.119 9.71 280.899 10.17 279.999 11.09C279.099 12.01 278.649 13.34 278.649 15.08V23H275.769ZM293.973 23.18C292.373 23.18 291.133 22.75 290.253 21.89C289.373 21.03 288.933 19.8 288.933 18.2V3.62H291.813V18.08C291.813 18.94 292.023 19.6 292.443 20.06C292.883 20.52 293.503 20.75 294.303 20.75C295.203 20.75 295.953 20.5 296.553 20L297.453 22.07C297.013 22.45 296.483 22.73 295.863 22.91C295.263 23.09 294.633 23.18 293.973 23.18ZM286.233 9.47V7.1H296.373V9.47H286.233Z" fill="#272D36"/>
</svg>
