<svg width="36" height="36" viewBox="0 0 36 36" fill="none" xmlns="http://www.w3.org/2000/svg">
<path d="M27.7959 6.57227C28.2332 6.58678 28.6478 6.77054 28.9523 7.08481C29.2567 7.39907 29.4273 7.81928 29.4279 8.25684V27.7997C29.4252 28.2318 29.2525 28.6455 28.947 28.9511C28.6416 29.2568 28.228 29.4298 27.7959 29.4328H8.15249C7.94091 29.4305 7.73189 29.3862 7.53754 29.3025C7.3432 29.2188 7.16738 29.0974 7.02028 28.9453C6.87318 28.7932 6.7577 28.6134 6.68054 28.4164C6.60338 28.2193 6.56608 28.009 6.57077 27.7974V8.25684C6.56055 7.82475 6.72071 7.40598 7.01666 7.091C7.31262 6.77601 7.72061 6.5901 8.15249 6.57341L27.7959 6.57227ZM13.4588 26.162V15.2968H10.0908V26.162H13.4588ZM11.7742 13.7666C12.0293 13.7666 12.282 13.7163 12.5177 13.6187C12.7534 13.521 12.9676 13.3779 13.148 13.1975C13.3284 13.0171 13.4715 12.8029 13.5692 12.5672C13.6668 12.3315 13.7171 12.0788 13.7171 11.8237C13.7171 11.3027 13.5101 10.803 13.1417 10.4345C12.7732 10.0661 12.2735 9.85912 11.7525 9.85912C11.2314 9.85912 10.7318 10.0661 10.3633 10.4345C9.9949 10.803 9.78792 11.3027 9.78792 11.8237C9.78878 12.0823 9.84107 12.3381 9.94174 12.5762C10.0424 12.8144 10.1894 13.0302 10.3743 13.211C10.5591 13.3918 10.7781 13.534 11.0184 13.6294C11.2588 13.7248 11.5157 13.7714 11.7742 13.7666ZM26.1628 26.162V20.1951C26.1628 17.2866 25.4988 14.9906 22.0805 14.9906C21.4339 14.9716 20.7943 15.1275 20.2289 15.4416C19.6635 15.7558 19.1933 16.2167 18.8679 16.7757H18.8153V15.2968H15.5993V26.162H18.9662V20.8077C18.9662 19.3791 19.2222 18.002 21.0073 18.002C22.7422 18.002 22.7422 19.6351 22.7422 20.8591V26.162H26.1628Z" fill="white"/>
</svg>
