<svg width="60" height="60" viewBox="0 0 60 60" fill="none" xmlns="http://www.w3.org/2000/svg">
<rect opacity="0.1" width="60" height="60" rx="30" fill="#DD712F"/>
<path d="M25.3955 27.1657C25.3955 25.9446 25.8806 24.7735 26.744 23.9101C27.6075 23.0466 28.7786 22.5615 29.9997 22.5615C31.2208 22.5615 32.3919 23.0466 33.2553 23.9101C34.1188 24.7735 34.6038 25.9446 34.6038 27.1657C34.6038 28.3868 34.1188 29.5579 33.2553 30.4213C32.3919 31.2848 31.2208 31.7699 29.9997 31.7699C28.7786 31.7699 27.6075 31.2848 26.744 30.4213C25.8806 29.5579 25.3955 28.3868 25.3955 27.1657Z" fill="#E6742E"/>
<path fill-rule="evenodd" clip-rule="evenodd" d="M18.3478 25.5738C18.5835 22.7259 19.881 20.0707 21.9829 18.1349C24.0849 16.199 26.8377 15.124 29.6953 15.123H30.3073C33.1649 15.124 35.9177 16.199 38.0197 18.1349C40.1217 20.0707 41.4192 22.7259 41.6548 25.5738C41.9163 28.7534 40.9347 31.9105 38.9164 34.3812L32.1263 42.6857C31.869 43.0007 31.5448 43.2545 31.1773 43.4289C30.8098 43.6032 30.4081 43.6936 30.0013 43.6936C29.5946 43.6936 29.1929 43.6032 28.8254 43.4289C28.4579 43.2545 28.1337 43.0007 27.8763 42.6857L21.0877 34.3812C19.0689 31.9107 18.0867 28.7536 18.3478 25.5738ZM30.0013 20.4355C28.2166 20.4355 26.5051 21.1445 25.2431 22.4065C23.9811 23.6684 23.2722 25.38 23.2722 27.1647C23.2722 28.9494 23.9811 30.661 25.2431 31.923C26.5051 33.1849 28.2166 33.8939 30.0013 33.8939C31.786 33.8939 33.4976 33.1849 34.7596 31.923C36.0215 30.661 36.7305 28.9494 36.7305 27.1647C36.7305 25.38 36.0215 23.6684 34.7596 22.4065C33.4976 21.1445 31.786 20.4355 30.0013 20.4355Z" fill="#E6742E"/>
</svg>
