<svg width="60" height="60" viewBox="0 0 60 60" fill="none" xmlns="http://www.w3.org/2000/svg">
<rect opacity="0.1" width="60" height="60" rx="30" fill="#B02739"/>
<path d="M18.6662 41.3327C17.8871 41.3327 17.2203 41.0555 16.6659 40.5011C16.1115 39.9467 15.8338 39.2795 15.8329 38.4994V21.4993C15.8329 20.7202 16.1106 20.0534 16.6659 19.499C17.2212 18.9446 17.888 18.667 18.6662 18.666H41.3329C42.1121 18.666 42.7793 18.9437 43.3346 19.499C43.89 20.0543 44.1672 20.7211 44.1662 21.4993V38.4994C44.1662 39.2785 43.889 39.9458 43.3346 40.5011C42.7802 41.0564 42.113 41.3336 41.3329 41.3327H18.6662ZM29.9996 31.416L41.3329 24.3327V21.4993L29.9996 28.5827L18.6662 21.4993V24.3327L29.9996 31.416Z" fill="#B02739"/>
</svg>
