<svg width="50" height="50" viewBox="0 0 50 50" fill="none" xmlns="http://www.w3.org/2000/svg">
<path d="M27.1202 50H23.8499C23.374 49.8135 21.9488 48.4666 21.5825 48.5238C21.4081 48.5512 21.2312 48.7439 20.9945 48.7825C19.8695 48.9628 18.9738 48.5002 18.3696 47.5687C16.9855 48.1918 15.6163 47.606 15.0694 46.2169C14.9212 46.1124 14.6222 46.2654 14.3942 46.2492C13.3203 46.1734 12.2464 45.2344 12.1567 44.1363C10.5048 44.1251 9.20786 42.7211 9.81706 41.0757C9.98151 40.6318 10.364 40.2736 10.4736 39.801C10.4151 39.4976 8.92008 38.4529 8.57748 38.3373C7.86487 38.096 7.03267 38.0973 6.25652 37.7627C6.02356 37.662 5.18139 37.0725 5.11411 37.07C4.97707 37.0626 4.42268 37.3337 4.08881 37.3212C3.88449 37.3138 3.48957 37.1707 3.30145 37.0737C2.88909 36.8623 0.807328 35.2008 0.489645 34.8439C-0.105855 34.1761 -0.168146 33.1029 0.357588 32.3803L9.51309 20.9961C9.59157 20.6218 9.43211 20.3333 9.46824 19.9304C9.54797 19.0511 10.2992 18.0823 10.2095 17.213C10.1111 16.2567 8.71203 15.4371 8.80546 14.0455C8.90264 12.5843 10.6268 12.0682 10.9121 11.1093C11.3108 9.76372 9.99522 8.17561 11.5637 6.91084C12.3523 6.2741 13.7688 6.15969 14.3668 5.60503C14.9648 5.05037 15.0557 3.47594 15.8107 2.66261C17.0802 1.29338 18.5814 2.47731 19.948 2.1291C20.7665 1.92141 21.5701 0.0037385 22.9604 7.62411e-06C24.2498 -0.00372325 25.2091 1.36302 26.0637 1.48117C26.6293 1.55951 27.8714 0.845674 28.5766 0.763594C30.6558 0.522331 30.738 1.92887 31.7521 3.17001C32.6192 4.23207 34.7222 3.42744 35.8073 4.62505C36.8425 5.7667 36.11 7.70925 37.1241 8.53377C37.8965 9.1618 38.9791 9.39187 39.4413 10.4179C39.9882 11.6304 39.2146 12.4562 38.9392 13.5344C38.6639 14.6151 39.247 14.8452 39.7129 15.6498C40.9587 17.8025 39.9284 18.4417 38.4247 19.9217L39.2619 20.6703C42.1098 24.4211 45.2817 27.9368 48.1383 31.6764C48.8896 32.6589 49.6794 33.7645 48.608 34.9384C48.3028 35.273 46.1139 37.0302 45.7426 37.2081C44.9814 37.5749 44.2066 37.3735 43.565 36.8872L43.3768 36.8897C42.4537 37.3697 41.1132 37.5625 40.2274 38.0425C39.835 38.2552 39.3354 38.8845 38.867 39.2028C38.4646 39.4752 38.0398 39.709 37.5813 39.8781C37.3421 40.1057 37.6249 40.4116 37.6548 40.6479C37.894 42.5283 36.4115 43.9336 34.5889 43.9796C34.4643 44.3365 34.4705 44.635 34.3011 44.9981C33.8189 46.0366 32.5196 46.6074 31.4108 46.59C31.062 48.285 29.5595 49.2737 27.8615 48.7327L27.1189 50H27.1202ZM30.9847 4.35643C30.5337 3.92987 29.699 2.19625 29.2966 2.07686C28.2227 1.7585 26.952 3.40257 25.1543 2.57431C24.5563 2.29823 23.4949 1.30706 22.8757 1.40531C22.2565 1.50355 21.2823 3.09291 20.3903 3.40754C19.3214 3.78561 17.5075 3.08669 16.8983 3.46599C16.3252 3.82291 16.1321 5.94454 15.0682 6.76906C14.4565 7.24289 12.5018 7.65577 12.2564 8.06617C11.7144 8.97153 12.9877 10.7151 11.7929 12.2671C11.4441 12.7211 10.2818 13.563 10.2107 14.048C10.0837 14.9111 11.4852 16.0179 11.5986 17.1297C11.6982 18.1047 11.1077 18.8559 10.9557 19.7774C11.4578 19.6045 11.9773 19.6816 12.4408 19.9266C12.8693 20.153 15.0757 21.9674 15.346 22.343C15.9577 23.1912 15.8094 24.1413 15.1604 24.9061C16.4523 25.319 17.7155 26.0478 19.0137 26.4246C21.5028 27.1459 21.9874 26.0502 24.1489 25.5329C26.1223 25.0616 28.1019 25.7356 30.155 25.559C30.5599 25.5242 33.642 24.8004 33.6582 24.5815C33.2421 23.9833 33.3007 23.1414 33.662 22.5308C34.1665 21.6801 36.0527 20.7064 36.7915 19.9652C36.9958 19.76 37.0992 19.4105 37.3072 19.1742C37.6149 18.8248 38.7486 17.8635 38.8508 17.5451C39.151 16.6149 37.5713 15.4197 37.4916 14.2271C37.4193 13.1563 38.3923 11.8667 38.2379 11.0608C38.1344 10.5236 36.1287 9.73014 35.6403 8.89691C35.0909 7.96046 35.2965 5.90101 34.6947 5.45704C33.8588 4.83896 32.1309 5.43963 30.9847 4.35643ZM11.4105 20.7885L1.07518 33.6115L4.31305 36.2119L14.6471 23.3889L11.4092 20.7885H11.4105ZM37.6934 20.8805L34.4568 23.4797L44.7933 36.3015L48.03 33.7023L37.6934 20.8805ZM42.5372 35.8214L34.534 25.7642C32.4984 26.5601 30.3979 27.0489 28.1903 26.9656C27.2547 26.9307 26.222 26.6223 25.2988 26.6845C24.3184 26.7492 21.2661 27.9704 20.4837 28.5922C19.7749 29.1556 18.8019 30.7064 18.1478 31.4836C17.6096 32.1229 16.8846 32.3517 17.211 33.3566C17.5374 34.3614 18.9402 34.0878 19.6802 33.7595C21.1203 33.1215 22.2491 31.9587 23.9907 31.8132C28.4059 31.4439 33.1474 36.4395 36.5087 38.7663C37.0232 38.6818 37.5078 38.4616 37.9501 38.193C38.5356 37.8361 39.0962 37.0874 39.5734 36.8288C40.3458 36.4109 41.6888 36.1833 42.5359 35.8214H42.5372ZM26.6792 42.7509C26.7913 42.639 27.165 42.5084 27.3295 42.5544C29.0101 43.3118 31.2077 46.6024 32.993 44.5293C33.1574 44.2495 33.2945 43.6749 33.1474 43.3764L29.405 40.5845C28.9603 39.9204 29.5819 39.2551 30.3493 39.6418C31.4021 40.1729 33.6582 42.4388 34.6412 42.5407C36.0091 42.6825 36.7503 41.3207 36.0377 40.2127C33.1188 38.055 28.4133 33.2546 24.6472 33.1128C22.1108 33.017 20.4626 35.9122 17.7517 35.3339C16.2666 35.0168 15.4992 33.6625 15.878 32.2012C16.0287 31.6204 16.5009 31.3394 16.8397 30.9228C17.6483 29.9279 18.4107 28.8932 19.2691 27.9406L14.5076 26.0639L14.2297 26.0726L6.20046 35.9794C6.11076 36.3039 7.06132 36.6248 7.31547 36.7044C7.89851 36.8872 8.66718 36.8884 9.17298 37.0887C9.82703 37.3486 10.6904 38.1147 11.1887 38.6183C12.1667 36.2666 15.3223 36.6198 15.7322 39.0747C16.8323 39.163 17.8227 39.6369 18.164 40.7499C19.2342 40.643 20.262 40.9999 20.774 41.9711C22.406 41.1479 24.4018 42.4002 24.2112 44.252C24.1115 45.2295 22.8994 46.5228 22.5393 47.4779C23.4226 47.8933 25.0982 49.6356 26.126 49.0548C26.3777 48.9131 26.5982 48.3684 26.5596 48.091C26.5085 47.7229 24.9898 46.9544 24.7021 46.5813C24.3333 46.1025 24.6161 45.4508 25.2116 45.4334C25.6688 45.4197 27.2647 46.8972 27.8141 47.2043C28.8718 47.7963 29.8797 47.5326 30.0665 46.2741L29.9719 46.0838L26.6954 43.6587C26.4038 43.4374 26.4387 42.9884 26.6767 42.7497L26.6792 42.7509ZM14.1961 38.7439C13.8049 38.2838 13.1708 38.2179 12.7447 38.6805C12.579 38.8596 11.1576 41.2921 11.0928 41.5073C10.8361 42.3455 11.7194 43.1128 12.4445 42.6701C12.7248 42.4997 14.1164 40.1455 14.2709 39.7376C14.4141 39.3608 14.4889 39.0884 14.1961 38.7427V38.7439ZM15.6948 40.5062C15.4506 40.5609 15.3223 40.7437 15.1766 40.9228C14.8975 41.266 13.7214 43.2546 13.5944 43.6389C13.4137 44.1873 13.719 44.7382 14.2945 44.8514C14.7916 44.9484 15.0532 44.7059 15.3435 44.3552C15.6338 44.0045 16.8111 41.9674 16.8684 41.5856C16.973 40.888 16.385 40.3507 15.6923 40.5062H15.6948ZM18.2139 45.9607C18.3845 45.758 19.3239 44.0443 19.4746 43.7209C19.5431 43.5717 19.7263 43.175 19.735 43.0456C19.7873 42.2957 18.691 41.7174 18.1092 42.3579C17.4801 43.0494 16.907 44.5629 16.3788 45.3911C16.2629 46.5912 17.5511 46.7454 18.2139 45.9607ZM21.5801 43.1178C21.3172 43.1787 21.2748 43.3292 21.1378 43.5145C20.8662 43.8826 19.5506 46.1186 19.4958 46.4532C19.3613 47.269 20.5236 47.8634 21.1415 47.1558C21.3496 46.917 22.7499 44.487 22.801 44.242C22.9666 43.4448 22.35 42.9387 21.5801 43.1178Z" fill="white"/>
</svg>
