<svg width="43" height="50" viewBox="0 0 43 50" fill="none" xmlns="http://www.w3.org/2000/svg">
<path d="M21.1173 0.0156428C21.4751 -0.0538825 21.8184 0.124276 22.1486 0.237255C28.7651 2.48234 35.3077 5.60519 41.9184 7.93863C42.3341 8.16604 42.505 8.59188 42.5485 9.04379C42.9251 12.9488 42.2516 17.4491 42.5485 21.4178C42.0343 33.4588 34.7167 44.2772 23.7158 49.1425C23.1031 49.4134 21.9226 50.0029 21.3056 50C20.7161 49.9971 19.4922 49.4047 18.8968 49.1425C11.8748 46.0414 6.02018 40.2491 2.87416 33.2545C-0.717985 25.2678 0.00623734 17.0464 0.169911 8.49918C0.388627 7.94298 1.36777 7.65039 1.91818 7.42443C8.25368 4.81289 14.7746 2.61125 21.1202 0.0156428H21.1173ZM40.0311 9.76657L21.3042 2.58953L2.57578 9.76512L2.56564 22.171C3.29276 33.3936 10.7421 43.679 21.3708 47.4406C31.9227 43.5486 39.4792 33.2125 40.047 21.9596C40.2484 17.9604 39.8978 13.7831 40.0296 9.76657H40.0311Z" fill="white"/>
<path d="M28.4217 17.02C30.5408 17.0634 32.1095 18.5857 32.3181 20.6672C32.0791 24.5722 32.6845 28.9494 32.3296 32.7993C32.15 34.746 30.803 36.2669 28.8041 36.4378C23.9866 36.8521 18.581 36.1206 13.7012 36.4335C11.7487 36.1684 10.4596 34.746 10.28 32.7993C10.4972 28.9146 9.98595 24.7127 10.2742 20.867C10.4393 18.6726 11.9442 17.075 14.1879 17.02C14.1328 14.9081 14.0865 12.9875 15.1482 11.0915C17.767 6.41157 24.6355 6.35508 27.3789 10.9553C28.513 12.8571 28.4753 14.8647 28.4203 17.0185L28.4217 17.02ZM25.9217 17.0214V13.9304C25.9217 12.104 23.681 10.1891 21.9443 9.98343C19.692 9.71691 16.6879 11.5115 16.6879 13.9304V17.0214H25.9217ZM13.7258 19.5403C13.1827 19.6981 12.8437 20.082 12.7757 20.6512V32.8037C12.8684 33.5757 13.4825 34.0305 14.24 34.0522C18.7983 33.7423 23.8736 34.4491 28.371 34.0522C29.2343 33.9755 29.7529 33.5815 29.8383 32.6979C30.2048 28.9334 29.5486 24.5852 29.8383 20.757C29.8398 20.1674 29.4733 19.8024 28.9678 19.5649L13.7244 19.5403H13.7258Z" fill="white"/>
<path d="M22.5721 28.9686C22.7126 30.094 22.3274 31.4367 20.9209 31.0688C19.9577 30.8168 20.0359 29.7623 20.0374 28.9686C16.3815 27.6186 17.126 22.0855 21.0817 21.8973C25.3271 21.6959 26.4467 27.4433 22.5707 28.9686H22.5721ZM22.5272 25.5227C22.5272 24.8506 21.9812 24.306 21.3077 24.306C20.6341 24.306 20.0881 24.8506 20.0881 25.5227C20.0881 26.1948 20.6341 26.7394 21.3077 26.7394C21.9812 26.7394 22.5272 26.1948 22.5272 25.5227Z" fill="white"/>
</svg>
