<svg width="41" height="50" viewBox="0 0 41 50" fill="none" xmlns="http://www.w3.org/2000/svg">
<path d="M17.741 12.0703C17.6161 12.4742 16.0025 12.1737 15.4425 12.4001C14.2289 12.8898 14.1801 14.9658 15.4464 15.3853C16.2698 15.6565 17.0951 15.2585 17.741 15.7209V19.4418H20.8062C21.214 15.3249 27.0616 15.2195 27.2275 19.4418H31.9707L32.1659 19.6837C32.238 23.9236 30.8566 28.0718 27.9611 31.1936C26.5992 32.6628 24.771 33.7828 23.3096 35.1544L23.2803 37.2949C25.13 38.2178 25.5202 40.1533 23.8617 41.5425C23.6881 41.6869 23.2998 41.7611 23.2022 41.9152C23.0462 42.161 23.6978 43.4273 22.4901 44.5493C22.2481 44.7736 21.7779 44.9414 21.7174 45.0175C21.6296 45.1249 21.3057 46.4516 21.1243 46.8321C19.1809 50.9178 13.3294 51.0895 11.1461 47.1248C10.8085 46.5121 10.6661 45.4156 10.4553 45.078C10.3149 44.8517 9.4505 44.6156 9.07197 43.8C8.73247 43.0664 8.97442 42.0011 8.92174 41.9172C8.84369 41.7923 8.05152 41.443 7.73934 41.0469C6.65644 39.6655 7.36276 37.9661 8.84369 37.2968L8.81442 35.1564C4.34823 31.8492 0.660542 28.1264 0.0829997 22.2885C-0.847702 12.8781 6.16085 5.38566 15.4737 4.98958C16.1469 4.96031 17.22 4.85885 17.7429 5.21396V12.0742L17.741 12.0703ZM15.9908 6.74367H13.7294C13.3723 6.74367 12.3577 7.03439 11.9402 7.14365C6.3345 8.61482 2.09464 13.6488 1.6888 19.4418H6.5062C6.67205 15.2195 12.5197 15.3249 12.9275 19.4418H15.9927V17.1063C11.8914 16.8682 11.8543 10.9387 15.9927 10.685V6.74367H15.9908ZM15.9908 21.192H11.3939C10.869 20.4857 11.4329 19.4769 11.0095 18.6574C10.5451 17.7599 8.76759 17.6896 8.28956 18.6711C7.87787 19.5159 8.39492 20.4798 7.89152 21.192H1.6888C1.72197 25.065 3.61264 28.5673 6.42816 31.1195C6.94912 31.5916 10.4456 34.1398 10.4456 34.3994V37.0998H15.9927V30.6785C11.7548 30.4912 11.8602 24.6865 15.9927 24.2572V21.192H15.9908ZM30.4391 21.192H25.8422C25.3212 20.4486 25.8968 19.4262 25.3934 18.5755C24.8549 17.6682 23.0676 17.7618 22.6696 18.7472C22.3476 19.5452 22.8452 20.5344 22.3398 21.19H17.7429V25.7869C17.0854 26.2923 16.0981 25.7948 15.3001 26.1167C14.2386 26.5459 14.2386 28.5322 15.3001 28.9595C16.0981 29.2815 17.0873 28.7839 17.7429 29.2893V37.0978H21.6842V34.3974C26.0919 31.0453 30.4781 27.264 30.441 21.19L30.4391 21.192ZM23.2783 38.8441H8.84564V40.3172H23.2783V38.8441ZM21.6725 42.0557H10.4514V43.5288H21.6725V42.0557ZM19.9302 45.2712H12.1938C13.0523 49.4018 19.0385 49.3842 19.9302 45.2712Z" fill="white"/>
<path d="M24.0183 10.6831C19.8663 10.3475 19.8507 4.57798 24.0183 4.25994C23.8993 1.96343 24.3188 0.388847 26.8592 0.168367C29.5694 -0.0657721 34.5078 -0.0462605 37.2335 0.168367C39.3447 0.334215 40.0607 1.05029 40.2266 3.15949C40.408 5.47356 40.4237 9.62562 40.2266 11.926C39.9066 15.6449 36.6189 14.6401 33.8931 14.7455C33.218 14.525 34.3146 12.2616 32.861 11.6899C32.2776 11.4597 31.6025 11.4519 31.0971 11.8441C30.0962 12.6206 30.9742 13.8869 30.3693 14.765H24.2388L24.0203 14.5464V10.6792L24.0183 10.6831ZM38.4686 12.6538V2.29122C38.4686 2.26586 38.2442 2.03367 38.174 2.00245H26.0612C25.4349 2.30293 25.9792 5.02089 25.7061 5.73111C25.3861 6.18963 22.6252 5.13016 22.5452 7.39935C22.5238 8.01592 22.8847 8.73199 23.472 8.96808C24.2369 9.27831 25.152 8.80223 25.7705 9.29782V13.0187H28.9821C29.1635 8.79833 34.9448 8.90564 35.4228 12.9992C36.014 12.9426 38.291 13.2899 38.4686 12.6538Z" fill="white"/>
</svg>
