<svg width="50" height="50" viewBox="0 0 50 50" fill="none" xmlns="http://www.w3.org/2000/svg">
<path d="M14.9058 35.5833C15.0738 35.7514 18.8659 34.5409 19.5136 34.4654C23.6759 33.9725 30.278 37.3075 34.578 37.8892C35.3448 38.163 36.0737 38.501 36.459 39.2678L44.8136 34.4691C48.617 32.8035 51.4478 37.808 48.0467 40.2592C42.7835 43.1712 37.7375 46.5875 32.2949 49.1143C27.6757 48.8575 22.1858 49.6771 17.6629 49.1785C16.6904 49.0709 15.8934 48.4647 14.9813 48.1833C14.7981 48.1814 15.1626 49.7658 14.3864 50L6.91561 49.8942C6.3925 49.5184 6.60023 48.8933 6.5719 48.3268C6.35851 48.1134 1.43147 48.4401 0.557101 48.3362C0.268164 48.3022 0.166186 48.2966 0.0339927 48.0114L0 35.4398C0.0982009 35.3076 0.239837 35.1868 0.390915 35.1226C1.29361 34.743 6.35473 35.2359 6.5719 35.0149C6.54358 34.2727 6.45671 33.4664 7.35751 33.3228C8.58313 33.1283 12.3979 33.185 13.7141 33.3077C15.1909 33.4437 14.9133 34.3898 14.9095 35.5815L14.9058 35.5833ZM13.2099 35.0168H8.26398V48.3306H13.2099V35.0168ZM47.3593 36.1952C46.8871 35.8005 46.0335 35.7627 45.4632 35.9743L37.2276 40.7502C36.984 42.7652 35.917 44.3497 33.7679 44.5158L22.8789 41.6831C22.2161 41.4452 22.1462 40.6237 22.675 40.1856C22.9224 40.0609 23.3095 40.0949 23.5833 40.1289C26.5596 40.4802 30.227 42.2837 33.2674 42.7445C35.5563 43.0919 36.1493 40.3725 34.3061 39.5813L20.7619 36.0064L14.9058 37.2867L14.9284 46.1154C14.9964 46.3156 16.8962 47.2504 17.2286 47.3505C19.2474 47.9567 28.331 47.8169 30.8067 47.6318C31.768 47.5601 32.3798 47.3523 33.2278 46.9425C37.8885 44.6896 42.4341 41.2356 47.1138 38.9071C48.0051 38.3802 48.1316 36.8448 47.3612 36.2009L47.3593 36.1952ZM6.56813 36.7164H1.6222V46.7726H6.56813V36.7164Z" fill="white"/>
<path d="M42.3172 27.5101C42.1963 28.8698 42.6948 30.5675 41.7544 31.6912C40.4211 33.2831 35.9794 32.3597 34.0494 32.609C33.7076 32.6751 33.2449 33.7798 32.3875 34.0593C31.5963 34.318 29.1941 34.2765 28.4746 33.8063C26.6107 32.5882 27.198 29.6157 29.4207 29.2437C31.1506 28.9529 33.1845 29.0851 33.9323 30.915C35.7622 30.7469 37.9189 31.1189 39.7054 30.9112C41.2936 30.7261 40.3909 28.5884 40.6213 27.5082L39.1955 27.2721L39.1332 17.8751C39.4939 17.4539 40.1001 17.4294 40.6194 17.452C40.7629 10.3438 35.7282 3.97585 28.9203 2.19502C18.9113 -0.424304 9.02139 7.09562 9.10637 17.452C9.64081 17.4275 10.5359 17.4634 10.6587 18.0922C10.4887 20.8437 10.8948 23.8766 10.6681 26.5923C10.6474 26.851 10.6474 27.1116 10.4868 27.3326C10.2659 27.4931 10.0072 27.4912 9.74845 27.5138C6.37563 27.7971 1.26541 27.7593 0.768738 23.3309C0.306061 19.2045 3.63356 17.0857 7.41241 17.452C7.26699 10.036 12.4622 3.05616 19.4552 0.842865C30.8088 -2.75091 42.2926 5.5905 42.3134 17.452C46.1357 17.0441 49.4896 19.3122 48.9438 23.4593C48.7323 25.0683 46.5738 27.5082 44.9289 27.5082H42.3153L42.3172 27.5101ZM5.72033 19.1536C1.30884 19.4519 1.32773 25.6877 5.72033 25.8104V19.1536ZM9.11203 25.8104V19.3669C8.70223 18.9515 7.96195 19.2272 7.41618 19.1554V25.8123H9.11203V25.8104ZM42.3172 19.1536C41.7714 19.2272 41.0311 18.9515 40.6213 19.3651V25.8086H42.3172V19.1517V19.1536ZM44.013 25.8104C48.432 25.6801 48.4018 19.4463 44.013 19.1536V25.8104ZM29.2111 32.2917C29.4151 32.4975 31.3564 32.6184 31.6963 32.5145C32.3762 32.3068 32.5556 31.4098 32.0646 31.0604C31.7757 30.8546 29.9325 30.8319 29.5605 30.9377C29.0411 31.0868 28.8466 31.9234 29.2111 32.2898V32.2917Z" fill="white"/>
<path d="M21.5453 3.92894C21.6511 3.43794 22.1799 3.32463 22.5991 3.28497C23.6132 3.19055 26.4554 3.149 27.4015 3.30008C27.681 3.3454 28.1871 3.65133 28.1871 3.92894V7.18657L28.5384 7.39807C29.256 6.87874 30.5949 4.85429 31.4995 4.98649C31.9622 5.05447 35.165 8.55382 35.6768 9.17513C35.7108 9.39609 35.6957 9.59815 35.6013 9.804C35.3898 10.2648 33.337 11.853 33.2728 12.1457L33.4843 12.497H36.7344C37.1687 12.497 37.3443 13.1995 37.3764 13.5526C37.4709 14.5724 37.5124 17.4127 37.3613 18.3664C37.3292 18.5741 37.0309 19.1539 36.8741 19.1539H33.4824L33.2709 19.5051C34.0414 20.6269 36.4322 21.6296 35.3218 23.1215C34.98 23.5786 32.423 26.1809 32.0075 26.4547C30.6875 27.3291 29.5223 24.9156 28.5346 24.2509L28.1833 24.4624V27.72C28.1833 28.1562 27.4827 28.3319 27.1296 28.364C26.2042 28.4489 22.9919 28.5094 22.1799 28.3545C21.9948 28.3186 21.5416 27.9542 21.5416 27.8616V24.4624L21.1903 24.2509C20.8863 24.3188 19.2206 26.4906 18.7561 26.6303C18.1876 26.8022 17.9081 26.5454 17.5115 26.2356C16.928 25.7786 14.7317 23.6125 14.3351 23.046C13.355 21.6429 15.7515 20.5381 16.454 19.5032L16.2425 19.152H12.8508C12.694 19.152 12.3975 18.5722 12.3636 18.3645C12.2125 17.4108 12.254 14.5705 12.3484 13.5507C12.3806 13.1976 12.5562 12.4951 12.9905 12.4951H16.2406L16.4521 12.1438C15.9347 11.4243 13.9159 10.0835 14.0462 9.17513C14.1142 8.70868 17.606 5.50204 18.2273 4.9846C19.1337 4.85429 20.4651 6.8693 21.1884 7.39619L21.5397 7.18468C21.6756 6.2461 21.3546 4.79197 21.5397 3.92705L21.5453 3.92894ZM26.4913 4.99026H23.2412V8.03449C23.2412 8.61803 21.2998 9.33754 20.7729 9.23745C20.2461 9.13736 18.977 7.4264 18.4369 7.03738L16.0366 9.30733C16.0366 9.48862 18.1461 11.1373 18.2707 11.7491C18.3614 12.191 17.6211 14.1947 17.0942 14.1947H14.0556V17.4523H16.9526C17.6116 17.4523 18.3821 19.4088 18.2972 19.9244C18.2122 20.4399 16.0366 22.1584 16.0366 22.3397L18.4369 24.6097C19.0223 24.1772 20.1705 22.5644 20.8013 22.4341C21.2488 22.3416 23.2412 23.1612 23.2412 23.6144V26.6587H26.4913V23.6144C26.4913 23.1612 28.4836 22.3435 28.9312 22.4341C29.5619 22.5644 30.7101 24.1772 31.2955 24.6097L33.6958 22.3397C33.6958 22.1584 31.5184 20.4229 31.4353 19.9244C31.3522 19.4258 32.1208 17.4523 32.7799 17.4523H35.6768V14.1947H32.6383C32.0963 14.1947 31.3635 12.2231 31.4617 11.7491C31.5864 11.1392 33.6958 9.49051 33.6958 9.30733L31.2955 7.03738C30.7554 7.4264 29.4826 9.13736 28.9595 9.23745C28.4364 9.33754 26.4913 8.61803 26.4913 8.03449V4.99026Z" fill="white"/>
<path d="M29.8593 15.8545C29.8593 18.6192 27.6234 20.8609 24.8662 20.8609C22.109 20.8609 19.873 18.6192 19.873 15.8545C19.873 13.0898 22.109 10.8481 24.8662 10.8481C27.6234 10.8481 29.8593 13.0898 29.8593 15.8545ZM28.1937 15.8451C28.1937 14.0038 26.7037 12.51 24.8681 12.51C23.0325 12.51 21.5425 14.0038 21.5425 15.8451C21.5425 17.6863 23.0325 19.1801 24.8681 19.1801C26.7037 19.1801 28.1937 17.6863 28.1937 15.8451Z" fill="white"/>
</svg>
