<svg width="36" height="36" viewBox="0 0 36 36" fill="none" xmlns="http://www.w3.org/2000/svg">
<mask id="mask0_139_280" style="mask-type:luminance" maskUnits="userSpaceOnUse" x="4" y="4" width="28" height="28">
<path d="M31.7128 4.28613H4.28418V31.8393H31.7128V4.28613Z" fill="white"/>
</mask>
<g mask="url(#mask0_139_280)">
<path fill-rule="evenodd" clip-rule="evenodd" d="M27.7127 8.28604C25.3686 5.95079 22.2564 4.54585 18.9544 4.33223C15.6525 4.1186 12.3852 5.11081 9.75967 7.12452C7.13412 9.13824 5.32878 12.0365 4.67905 15.281C4.02932 18.5254 4.57938 21.8954 6.22704 24.7649L4.28418 31.8392L11.5253 29.9409C13.5272 31.0309 15.7705 31.6015 18.0499 31.6003H18.0568C20.7576 31.5996 23.3975 30.7981 25.6429 29.2973C27.8883 27.7965 29.6384 25.6636 30.6718 23.1683C31.7053 20.6731 31.9758 17.9274 31.4491 15.2785C30.9224 12.6295 29.6221 10.1962 27.7127 8.28604ZM18.0568 29.2963C16.0224 29.2981 14.0252 28.7517 12.275 27.7146L11.859 27.47L7.56418 28.5946L8.70704 24.4095L8.43618 23.9786C7.09835 21.8468 6.50687 19.3309 6.75473 16.8264C7.00259 14.3218 8.07573 11.9706 9.80545 10.1424C11.5352 8.31422 13.8234 7.11266 16.3104 6.72664C18.7974 6.34062 21.3422 6.79202 23.5447 8.00988C25.7472 9.22774 27.4826 11.143 28.478 13.4546C29.4734 15.7662 29.6724 18.343 29.0437 20.78C28.415 23.217 26.9943 25.376 25.0048 26.9176C23.0154 28.4592 20.5701 29.2959 18.0533 29.2963" fill="white"/>
<path fill-rule="evenodd" clip-rule="evenodd" d="M24.2806 20.797C23.9378 20.6268 22.2612 19.8016 21.9492 19.6873C21.6372 19.5731 21.4086 19.5171 21.1812 19.8576C20.9538 20.1982 20.3 20.9673 20.1012 21.1959C19.9023 21.4245 19.7035 21.4519 19.3629 21.2816C18.3574 20.8807 17.4293 20.308 16.62 19.5891C15.8747 18.8984 15.2347 18.1021 14.7206 17.2256C14.5218 16.8828 14.7 16.6988 14.8715 16.5296C15.0429 16.3605 15.2143 16.1308 15.3835 15.9319C15.5246 15.7589 15.6401 15.5664 15.7263 15.3605C15.7713 15.2662 15.7922 15.1622 15.787 15.0579C15.7818 14.9535 15.7508 14.8521 15.6966 14.7628C15.6109 14.5925 14.948 12.9045 14.6463 12.2313C14.3903 11.6599 14.1206 11.6519 13.8783 11.6428L13.2246 11.6348C13.0509 11.6386 12.8798 11.6785 12.7224 11.7521C12.565 11.8257 12.4246 11.9313 12.3103 12.0622C11.924 12.4272 11.6182 12.8689 11.4123 13.3589C11.2065 13.8489 11.1052 14.3765 11.1149 14.9079C11.2263 16.1949 11.7109 17.4214 12.5092 18.4371C13.9257 20.6708 15.9468 22.4568 18.3378 23.5879C21.22 24.7239 21.8075 24.5022 22.4326 24.4416C22.9092 24.3485 23.3608 24.1558 23.7579 23.8762C24.1549 23.5965 24.4884 23.2362 24.7366 22.8188C24.9596 22.3087 25.0287 21.7447 24.9355 21.1959C24.8498 21.0531 24.6223 20.9673 24.2806 20.797Z" fill="white"/>
</g>
</svg>
